<?xml version="1.0" encoding="utf-8"?>
<!-- Svg Vector Icons : http://www.onlinewebfonts.com/icon -->
<!DOCTYPE svg PUBLIC "-//W3C//DTD SVG 1.1//EN" "http://www.w3.org/Graphics/SVG/1.1/DTD/svg11.dtd">
<svg version="1.1" xmlns="http://www.w3.org/2000/svg" xmlns:xlink="http://www.w3.org/1999/xlink" x="0px" y="0px" viewBox="0 0 1000 1000" enable-background="new 0 0 1000 1000" xml:space="preserve">
<metadata> Svg Vector Icons : http://www.onlinewebfonts.com/icon </metadata>
<g style="fill: #ffff7a;"><g style="fill: #ffff7a;"><g style="fill: #ffff7a;"><path style="fill: #ffff7a;" d="M500,295.9c-112.6,0-204.2,91.6-204.2,204.1c0,112.6,91.6,204.2,204.2,204.2c112.6,0,204.2-91.6,204.2-204.2C704.2,387.4,612.6,295.9,500,295.9z M500,636.4c-75.2,0-136.4-61.2-136.4-136.4c0-75.2,61.2-136.4,136.4-136.4S636.4,424.8,636.4,500C636.4,575.2,575.2,636.4,500,636.4z"/><path d="M500,248c18.7,0,33.9-15.2,33.9-33.9V43.9c0-18.7-15.2-33.9-33.9-33.9c-18.7,0-33.9,15.2-33.9,33.9v170.3C466.1,232.9,481.3,248,500,248z"/><path d="M702.1,331.8c8.7,0,17.4-3.3,24-9.9l120.4-120.4c13.2-13.2,13.2-34.7,0-47.9c-13.2-13.2-34.7-13.2-47.9,0L678.2,274c-13.2,13.2-13.2,34.7,0,47.9C684.8,328.5,693.4,331.8,702.1,331.8z"/><path d="M956.1,466.1l-170.3,0c-18.7,0-33.9,15.2-33.9,33.9c0,18.7,15.2,33.9,33.9,33.9l170.3,0c18.7,0,33.9-15.2,33.9-33.9C990,481.3,974.8,466.1,956.1,466.1z"/><path d="M726,678.2c-13.2-13.2-34.7-13.2-47.9,0c-13.2,13.2-13.2,34.7,0,47.9l120.4,120.4c6.6,6.6,15.3,9.9,24,9.9c8.7,0,17.3-3.3,24-9.9c13.2-13.2,13.2-34.7,0-47.9L726,678.2z"/><path d="M500,752c-18.7,0-33.9,15.2-33.9,33.9l0,170.3c0,18.7,15.2,33.9,33.9,33.9c18.7,0,33.9-15.2,33.9-33.9l0-170.3C533.9,767.1,518.7,752,500,752z"/><path d="M273.9,678.2L153.5,798.6c-13.2,13.2-13.2,34.7,0,47.9c6.6,6.6,15.3,9.9,23.9,9.9c8.7,0,17.3-3.3,23.9-9.9l120.4-120.4c13.2-13.2,13.2-34.7,0-47.9C308.6,664.9,287.1,664.9,273.9,678.2z"/><path d="M248,500c0-18.7-15.2-33.9-33.9-33.9H43.9C25.2,466.1,10,481.3,10,500c0,18.7,15.2,33.9,33.9,33.9h170.3C232.9,533.9,248,518.7,248,500z"/><path d="M273.9,321.8c6.6,6.6,15.3,9.9,24,9.9c8.7,0,17.3-3.3,23.9-9.9c13.2-13.2,13.2-34.7,0-47.9L201.4,153.5c-13.2-13.2-34.7-13.2-47.9,0c-13.2,13.2-13.2,34.7,0,47.9L273.9,321.8z"/></g></g><g></g><g></g><g></g><g></g><g></g><g></g><g></g><g></g><g></g><g></g><g></g><g></g><g></g><g></g><g></g></g>
</svg>