<svg viewBox="0 0 336 235.2" xmlns="http://www.w3.org/2000/svg" width="336" height="235.2"><path fill="none" pointer-events="none" d="M0 0h336v235.2H0z"/><g><g><path class="st7" d="M616.124 27.578l-6.178-6.178h-1.373l-6.179 6.178-6.178-6.178h-1.373l-6.179 6.178-6.35-6.35h-1.202l-6.35 6.35-6.35-6.35h-1.201l-6.35 6.35-6.35-6.35h-1.03l-6.35 6.35-6.35-6.35h-1.03l-6.35 6.35-6.35-6.35h-.859l-6.35 6.35-6.522-6.521h-.858l-6.522 6.521-6.522-6.521h-.858l-6.522 6.521-6.521-6.521h-.687l-6.522 6.521-6.521-6.521h-.687l-6.522 6.521-6.522-6.521h-.514l-6.522 6.521-6.694-6.693h-.515l-6.693 6.693-6.693-6.693h-.515l-6.694 6.693-6.693-6.693h-.343l-6.694 6.693-6.693-6.693h-.343l-6.694 6.693-6.865-6.865h-.172l-6.865 6.865-6.865-6.865h-.171l-6.865 6.865-6.865-6.865-6.865 6.865-5.836-5.835-.515 212.817 270.998.686s3.433 6.694 3.604-54.234c.172-60.927.344-159.612.344-159.612h-.344l-6.35 6.178z" fill="#b2b2b2"/><path d="M369.511 30.259l276.49.719-.54 207.839-276.49-.72.54-207.838z" class="st2" fill="#fff"/></g><g><path class="st8" d="M373.872 88.433V58.398h7.894l6.179 10.984c1.716 3.09 3.432 6.865 4.805 10.298h.172c-.343-3.948-.515-8.067-.515-12.529v-8.753h6.179v30.035h-7.037l-6.35-11.5c-1.716-3.26-3.776-7.036-5.149-10.64h-.172c.172 3.947.344 8.238.344 13.043v9.097h-6.35z" fill="#d6e0ff"/><path class="st8" d="M380.656 77.863h-10.984v7.036h12.357v5.492h-19.05V60.357h18.535v5.492h-11.67v6.178h10.983l-.171 5.836zM452.42 84.161l-7.097-30.29h7.27l2.25 12.462c.693 3.635 1.212 7.616 1.731 10.559h.173c.52-3.29 1.212-6.924 2.077-10.732l2.597-12.29h7.27l2.423 12.81c.692 3.461 1.211 6.75 1.558 10.212h.173c.519-3.29 1.211-6.924 1.73-10.559L477 54.043h6.923l-7.962 30.291h-7.443l-2.596-12.981c-.52-3.116-1.038-5.885-1.385-9.347h-.173a129.109 129.109 0 0 1-1.73 9.347l-2.943 12.981-7.27-.173z" fill="#d6e0ff"/><path class="st8" d="M382.065 77.822c1.717.858 4.634 1.888 7.552 1.888 3.09 0 4.806-1.202 4.806-3.261 0-1.888-1.373-2.918-4.978-4.12-4.977-1.716-8.238-4.633-8.238-8.924 0-5.149 4.291-8.924 11.328-8.924 3.432 0 5.835.686 7.723 1.544l-1.545 5.492c-1.201-.515-3.26-1.373-6.178-1.373s-4.291 1.373-4.291 2.918c0 1.888 1.716 2.746 5.492 4.29 5.32 1.888 7.723 4.806 7.723 8.925 0 4.977-3.776 9.268-12.014 9.268-3.432 0-6.865-1.03-8.41-1.888l1.03-5.835z" fill="#d6e0ff"/><path d="M116.858 58.724h13.225v3.008h-16.92V33.843h3.695v24.88zm12.582-24.292l-.392 7.045h-2.469l.017-9.17h2.844v2.125zm18.337 20.025H136.09l-2.616 7.275h-3.792l10.642-27.889h3.22l10.675 27.889h-3.776l-2.665-7.275m-10.576-3.024h9.48l-4.74-13.062-4.74 13.062zm28.536 7.781c1.264 0 2.364-.381 3.302-1.144.948-.763 1.47-1.722 1.569-2.877h3.368c-.066 1.188-.475 2.321-1.226 3.4-.763 1.068-1.771 1.923-3.025 2.566a8.739 8.739 0 0 1-3.988.949c-2.823 0-5.068-.938-6.735-2.812-1.668-1.886-2.502-4.463-2.502-7.732v-.605c0-2.016.37-3.81 1.112-5.378.741-1.57 1.804-2.79 3.188-3.662 1.384-.861 3.018-1.292 4.904-1.292 2.332 0 4.266.692 5.803 2.076 1.537 1.395 2.36 3.204 2.469 5.428h-3.368c-.098-1.34-.605-2.441-1.52-3.302-.905-.861-2.033-1.292-3.384-1.292-1.798 0-3.193.649-4.185 1.945-.98 1.297-1.471 3.172-1.471 5.624v.67c0 2.387.49 4.223 1.471 5.51.98 1.285 2.387 1.928 4.218 1.928zm17.021-23.23v5.02h3.874v2.746h-3.874v12.849c0 .828.174 1.449.523 1.863.338.414.926.621 1.766.621.403 0 .964-.076 1.683-.229v2.878c-.937.25-1.847.376-2.73.376-1.58 0-2.773-.475-3.58-1.423-.806-.959-1.21-2.321-1.21-4.086v-12.85h-3.76v-2.746h3.76v-5.018h3.548zm20.81 23.704c-1.384 1.613-3.411 2.42-6.081 2.42-2.202 0-3.88-.638-5.035-1.913-1.156-1.286-1.744-3.188-1.766-5.705V41.003h3.547v13.389c0 3.138 1.281 4.708 3.842 4.708 2.703 0 4.501-1.008 5.395-3.025V41.003h3.547v20.729h-3.368l-.081-2.044zm21.628 2.044c-.207-.415-.376-1.145-.507-2.191-1.646 1.711-3.613 2.567-5.901 2.567-2.038 0-3.711-.578-5.019-1.733-1.308-1.155-1.962-2.621-1.962-4.398 0-2.157.818-3.83 2.452-5.018 1.646-1.199 3.956-1.798 6.932-1.798h3.449v-1.619c0-1.242-.37-2.228-1.112-2.959-.74-.74-1.83-1.111-3.27-1.111-1.263 0-2.326.321-3.187.964-.86.632-1.291 1.406-1.291 2.322h-3.548c0-1.036.365-2.038 1.096-3.008.73-.96 1.727-1.722 2.991-2.289 1.253-.556 2.632-.834 4.136-.834 2.398 0 4.272.594 5.623 1.782 1.352 1.199 2.055 2.845 2.11 4.937v9.547c0 1.896.239 3.405.719 4.528v.31h-3.711m-5.885-2.697a6.171 6.171 0 0 0 3.155-.866c1.002-.578 1.727-1.324 2.174-2.24v-4.25h-2.78c-4.337 0-6.505 1.27-6.505 3.809 0 1.112.37 1.978 1.111 2.6.73.631 1.679.947 2.845.947zm18.283 2.698h-3.547V32.307h3.547v29.425zm9.521 0h-3.547V41.003h3.547v20.729m-3.841-26.221c0-.578.174-1.063.523-1.455.36-.403.883-.605 1.57-.605.686 0 1.209.202 1.569.605.36.392.54.877.54 1.455 0 .566-.18 1.046-.54 1.438-.36.382-.883.572-1.57.572-.686 0-1.21-.19-1.569-.572-.349-.392-.523-.872-.523-1.438zm14.31.474v5.018h3.875v2.747h-3.875v12.849c0 .828.175 1.449.524 1.863.337.414.926.621 1.765.621.403 0 .965-.076 1.684-.229v2.878c-.937.25-1.847.376-2.73.376-1.58 0-2.774-.475-3.58-1.423-.807-.959-1.21-2.321-1.21-4.086v-12.85h-3.76v-2.746h3.76v-5.018h3.547zm16.609 26.123c-2.812 0-5.095-.921-6.85-2.763-1.765-1.842-2.648-4.31-2.648-7.405v-.654c0-2.05.393-3.885 1.177-5.51.785-1.612 1.886-2.876 3.302-3.792a8.297 8.297 0 0 1 4.578-1.357c2.702 0 4.8.883 6.293 2.649 1.493 1.776 2.24 4.32 2.24 7.634v1.471h-14.042c.043 2.049.637 3.7 1.781 4.953 1.145 1.253 2.6 1.88 4.365 1.88 1.253 0 2.31-.25 3.171-.752a7.973 7.973 0 0 0 2.29-2.043l2.157 1.7c-1.733 2.659-4.338 3.989-7.814 3.989m-.441-18.57c-1.428 0-2.627.517-3.597 1.552-.97 1.046-1.57 2.507-1.798 4.381h10.38v-.261c-.098-1.81-.583-3.204-1.454-4.185-.872-.992-2.05-1.488-3.531-1.488m1.732-11.198h4.283l-5.133 5.64h-2.844l3.694-5.64z" fill="#fff" white-space="pre" color="#d6e0ff"/><path d="M298.618 95.89l42.44-.326" fill="#d6e0ff" paint-order="fill"/></g><path d="M217.255 98.332l76.888.201-.15 57.495-76.888-.2.15-57.496z" class="st9" fill="none" stroke="#ff5b4f" stroke-width=".858135"/><g><path d="M130.513 98.161l76.888.2-.008 3.433-76.889-.2.009-3.433zM130.513 106.228l76.888.2-.009 3.432-76.888-.2.009-3.432zM130.513 114.122l76.888.2-.008 3.433-76.889-.2.009-3.433zM130.513 122.189l76.888.2-.009 3.433-76.888-.2.009-3.433zM130.513 130.084l76.888.2-.009 3.432-76.888-.2.009-3.432zM130.513 138.15l76.888.2-.009 3.433-76.888-.2.009-3.433zM130.513 146.045l76.888.2-.009 3.432-76.888-.2.009-3.432zM130.513 154.111l76.888.201-.009 3.432-76.888-.2.009-3.433zM130.513 162.007l76.888.2-.009 3.432-76.888-.2.009-3.432zM130.513 170.072l76.888.201-.009 3.433-76.888-.201.009-3.433zM130.513 177.968l76.888.2-.009 3.432-76.888-.2.009-3.432zM130.513 186.034l76.888.2-.009 3.433-76.888-.201.009-3.432zM130.513 193.928l76.888.201-.009 3.433-76.888-.201.009-3.433zM130.513 201.996l76.888.2-.009 3.432-76.888-.2.009-3.432zM130.513 209.89l76.888.2-.009 3.433-76.888-.2.009-3.433z" class="st1" fill="#dbdbe5"/></g><g><path d="M217.184 162.007l76.889.2-.01 3.432-76.888-.2.01-3.432zM217.184 170.072l76.889.201-.01 3.433-76.888-.201.01-3.433zM217.184 177.968l76.889.2-.01 3.432-76.888-.2.01-3.432zM217.184 186.034l76.889.2-.01 3.433-76.888-.2.01-3.433zM217.184 193.928l76.889.201-.009 3.433-76.889-.201.01-3.433zM217.184 201.996l76.889.2-.01 3.432-76.888-.2.009-3.432zM217.184 209.89l76.889.2-.01 3.433-76.888-.2.01-3.433z" class="st1" fill="#dbdbe5"/></g><g><path d="M42.812 98.16l76.888.201-.009 3.433-76.888-.2.009-3.433zM42.811 106.228l76.889.2-.009 3.432-76.889-.2.01-3.432zM42.812 114.122l76.888.2-.009 3.433-76.888-.2.009-3.433zM42.811 122.189l76.889.2-.01 3.432-76.888-.2.01-3.432zM42.811 130.084l76.889.2-.009 3.432-76.888-.2.008-3.432zM42.811 138.15l76.889.2-.01 3.433-76.888-.2.01-3.433zM42.811 146.045l76.889.2-.009 3.432-76.888-.2.008-3.432zM42.811 154.11l76.889.202-.01 3.432-76.888-.2.01-3.433zM42.812 162.007l76.888.2-.009 3.432-76.888-.2.009-3.432zM42.811 170.072l76.889.201-.009 3.433-76.889-.201.01-3.433zM42.812 177.968l76.888.2-.009 3.432-76.888-.2.009-3.432zM42.811 186.033l76.889.202-.009 3.432-76.889-.201.01-3.433zM42.812 193.928l76.888.201-.009 3.433-76.888-.201.009-3.433zM42.811 201.995l76.889.2-.01 3.433-76.888-.2.01-3.433zM42.811 209.89l76.889.2-.009 3.433-76.888-.2.008-3.433z" class="st1" fill="#dbdbe5"/></g><path d="M106.465 80.19l188.908-.327v4.12l-188.908.326v-4.12z" class="st5" fill="#ff5b4f"/><path d="M42.807 86.247h251.26v1.716H42.807v-1.716z" class="st7" fill="#b2b2b2"/><path d="M105.965 20l-.171 67.792-76.717-.172z" class="st1" fill="none" stroke="#fff" stroke-width=".85813"/></g></svg>