<svg width="580" height="400" xmlns="http://www.w3.org/2000/svg">
 <!-- Created with Method Draw - http://github.com/duopixel/Method-Draw/ -->

 <g>
  <title>Layer 1</title>

  <g stroke="null" id="svg_79">
   <g stroke="null" transform="matrix(0.2975909293734389,0,0,0.30832909895562716,-8627.047314528645,-6052.402884923205) " fill="#d3d3d3" id="svg_18">
    <path stroke="null" d="m29565.580355,20682.797365c-53.5216,-14.1346 -47.7588,-11.9781 -50.9375,-19.0612l-2.6783,-5.9681l2.1718,-11.05141c2.2903,-11.65427 2.1636,-14.6033 -0.8888,-20.68462c-1.0369,-2.06573 -3.959,-7.88887 -6.4935,-12.94032c-2.5346,-5.05145 -5.5611,-12.02645 -6.7256,-15.5c-1.1645,-3.47355 -3.421,-8.29274 -5.0144,-10.7093c-1.5933,-2.41656 -3.1944,-6.01656 -3.5579,-8c-0.3636,-1.98344 -1.9468,-5.08441 -3.5184,-6.89105c-1.5716,-1.80663 -2.8574,-3.76217 -2.8574,-4.34563c0,-0.58345 -0.9348,-2.37357 -2.0772,-3.97804c-1.2018,-1.68768 -2.4788,-5.75224 -3.0299,-9.64365c-0.6001,-4.23785 -1.8458,-8.0253 -3.3668,-10.23716c-1.3279,-1.93089 -2.8725,-4.73299 -3.4326,-6.22686c-0.56,-1.49388 -2.6046,-3.74388 -4.5435,-5c-3.4746,-2.25108 -4.7587,-5.91882 -2.55,-7.28386c0.55,-0.33992 1,-3.11674 1,-6.17071c0,-5.43129 6.559,-24.26144 51.1754,-146.91967l4.0341,-11.09037l22.1452,7.3645c12.1799,4.05047 30.6953,9.86977 41.1453,12.93178c10.45,3.062 28.8657,8.45432 40.9237,11.98292c12.0581,3.52861 22.0347,6.52663 22.1704,6.66228c0.6596,0.65959 -2.974,15.33806 -3.9602,15.99811c-0.6237,0.41736 -2.2194,1.04698 -3.5462,1.39915c-2.5095,0.6661 -13.0087,11.04291 -13.059,12.9068c-0.0158,0.58563 1.5782,1.83106 3.5422,2.76762c3.4362,1.63861 3.6791,1.62576 6.4408,-0.34077c1.5785,-1.12398 3.1627,-2.96582 3.5205,-4.09298c0.3577,-1.12716 0.8569,-1.84291 1.1092,-1.59055c0.2524,0.25236 -1.3132,7.82377 -3.479,16.82536c-5.1132,21.251 -10.6244,44.26812 -18.1657,75.86653c-3.3472,14.025 -7.1693,30 -8.4936,35.5c-6.6776,27.7332 -12.6219,52.50632 -15.8366,66c-16.9717,71.2386 -15.5381,65.5543 -16.4839,65.3592c-0.3754,-0.0774 -6.9826,-1.8045 -14.6826,-3.838z" id="svg_31"/>
    <g stroke="null" id="svg_30">
     <path stroke="null" id="svg_33" d="m29353.080355,20630.516095c-6.3865,-4.06252 -16,-16.63647 -16,-20.9272c0,-2.38554 -0.5908,-3.20946 -2.9361,-4.09472c-2.9692,-1.12075 -5.242,-5.01186 -6.5522,-11.21801c-0.3484,-1.65 -1.6487,-4.575 -2.8896,-6.5c-1.2408,-1.925 -3.0433,-5.525 -4.0055,-8c-0.9621,-2.475 -3.5757,-7.54513 -5.808,-11.26695c-2.4498,-4.08463 -4.5598,-9.23765 -5.3231,-13c-0.6956,-3.42818 -1.8679,-7.70856 -2.6052,-9.51197c-1.28332,-3.13881 -1.21327,-3.38297 1.6395,-5.71403c1.6391,-1.33932 3.8453,-2.45131 4.9027,-2.47109c1.9776,-0.03699 7.9367,5.69247 17.5775,16.90016c3.025,3.51663 5.9565,6.88213 6.5144,7.47888c0.5579,0.59675 2.5713,3.11 4.4741,5.585c1.9029,2.475 3.7196,4.725 4.037,5c1.3981,1.21112 3.9381,10.03813 4.572,15.88838c0.6065,5.59788 1.3041,7.19686 5.6375,12.92211c5.7685,7.6212 6.2584,8.74516 7.2182,16.56062c0.3965,3.2291 1.3225,7.57592 2.0576,9.65959c0.7352,2.08366 1.071,4.05417 0.7463,4.37889c-1.5017,1.50163 -9.943,0.43849 -13.2571,-1.66966z"/>
     <path stroke="null" id="svg_34" d="m29511.580355,20668.210665c-0.9122,-0.266 -21.5109,-6.6679 -37.5,-11.6547c-5.5145,-1.7199 -63.9464,-23.62661 -88,-32.99215c-4.125,-1.60612 -8.85,-3.41409 -10.5,-4.01773c-3.8207,-1.39775 -4.4659,-2.40911 -4.4847,-7.02971c-0.0105,-2.58753 -0.6701,-4.30236 -2.1156,-5.5c-5.8132,-4.81661 -7.8997,-7.2311 -7.8997,-9.14142c0,-1.15433 -0.3886,-2.09879 -0.8636,-2.09879c-2.4249,0 -5.9209,-5.31759 -6.5338,-9.93833c-0.9928,-7.48377 -4.3283,-13.99494 -10.2314,-19.9725c-5.2845,-5.35116 -5.337,-5.46421 -4.7541,-10.25c0.4777,-3.92153 0.3012,-4.83917 -0.9305,-4.83917c-0.836,0 -1.6699,-0.35418 -1.8533,-0.78707c-0.1833,-0.43289 -2.4708,-2.02686 -5.0833,-3.54216c-2.6125,-1.51529 -4.7844,-3.29861 -4.8265,-3.96292c-0.0421,-0.66432 -0.2628,-2.10785 -0.4904,-3.20785c-0.5583,-2.69828 -0.6117,-4.47586 -0.4567,-15.20711c0.1293,-8.95884 0.2149,-9.27604 3.1713,-11.76372c2.7956,-2.35234 2.951,-2.80717 1.9453,-5.69212c-0.6011,-1.72452 -1.093,-4.90932 -1.093,-7.07732c0,-2.98832 -0.9774,-5.33518 -4.0405,-9.70194c-3.3858,-4.8268 -3.9486,-6.31082 -3.4732,-9.15895c0.312,-1.86936 1.4896,-4.17376 2.6168,-5.12088c2.2741,-1.91081 2.0615,-3.48072 -1.392,-10.27796c-1.7387,-3.42221 -2.0278,-5.87112 -2.0014,-16.95364c0.0299,-12.52951 0.1143,-13.03701 2.5786,-15.5c1.4012,-1.4005 4.9378,-3.44636 7.8591,-4.54636c7.1892,-2.70705 12.8526,-7.83988 12.8526,-11.64848c0,-3.99341 2.161,-8.68982 5.8813,-12.78163c2.7822,-3.06004 3.1187,-4.09412 3.1187,-9.5847c0,-5.57055 -0.2832,-6.40692 -2.9842,-8.81357c-3.4263,-3.0528 -9.4059,-14.3638 -11.0543,-20.91023c-0.97,-3.85231 -0.7584,-5.9704 1.5694,-15.70548c2.3762,-9.93774 2.5639,-11.91306 1.606,-16.90428c-0.5966,-3.1084 -1.3393,-9.92663 -1.6505,-15.15163c-0.3113,-5.225 -0.7649,-10.44598 -1.0081,-11.60218c-0.2432,-1.15619 -0.6976,-3.85619 -1.0098,-6c-0.3122,-2.1438 -1.9051,-9.52282 -3.5397,-16.39782c-1.6347,-6.875 -3.1953,-13.50976 -3.468,-14.7439c-0.31,-1.4028 -1.873,-2.81933 -4.17,-3.77905c-7.0127,-2.9301 -7.9305,-2.89563 -9.8597,0.37032c-1.2962,2.19423 -3.4278,3.60653 -7.855,5.20422c-3.3419,1.20601 -7.84812,3.03777 -10.01393,4.07058c-2.16581,1.03281 -4.04203,1.87783 -4.16939,1.87783c-0.12736,0 0.16458,-1.4625 0.64875,-3.25c1.35416,-4.99941 0.46689,-17.04443 -1.47373,-20.00618c-2.05621,-3.13818 -1.78041,-12.42138 0.3551,-11.95208c0.73014,0.16045 10.83368,6.51204 22.4523,14.11464c31.6719,20.72435 66.2869,41.78133 83.1248,50.56649c8.25,4.30442 15.45,8.14352 16,8.53133c2.721,1.9186 33.5661,17.53763 45,22.78665c7.15,3.28238 22.675,9.69371 34.5,14.2474c11.825,4.55368 21.859,8.58949 22.2979,8.96846c0.4388,0.37897 0.342,1.77 -0.2152,3.09116c-0.5572,1.32117 -5.7863,15.67713 -11.6203,31.90213c-5.8339,16.225 -12.342,34.225 -14.4623,40c-23.148,63.04654 -28.0001,77.31511 -28.0001,82.33941c0,3.00696 -0.6323,6.11831 -1.4931,7.34734c-2.1652,3.09126 -0.9323,7.41532 2.7981,9.81325c4.6624,2.99701 10.7064,14.21023 11.428,21.20195c0.3949,3.82645 1.5391,7.23456 3.4298,10.21584c1.5605,2.46057 2.8372,4.92355 2.8372,5.47327c0,0.54973 1.0589,2.14913 2.3531,3.55422c1.2943,1.4051 2.931,4.70381 3.6372,7.33048c0.7062,2.62667 1.6809,5.02102 2.1659,5.32077c1.2686,0.78404 5.4339,9.37282 6.2577,12.90347c0.3851,1.65 3.9064,9.49065 7.8253,17.42366c4.1198,8.33968 7.1302,15.72128 7.1369,17.5c0.0065,1.69199 -0.774,7.29457 -1.7344,12.45019c-1.8002,9.66375 -1.5384,13.82795 1.1249,17.89265c1.5516,2.368 1.4709,3.1748 -0.2666,2.668z"/>
     <path stroke="null" id="svg_35" d="m29282.320005,20479.509095c-4.06121,-9.4021 -5.55744,-20.58407 -4.89632,-36.59212c0.3848,-9.31752 1.03779,-14.89511 1.85977,-15.88554c0.69672,-0.83949 1.27354,-2.25285 1.28183,-3.14081c0.02431,-2.60399 4.34566,-2.49703 8.34496,0.20654c4.78774,3.23658 11.17011,9.58174 11.17011,11.10499c0,0.65884 -4.05,5.41715 -9,10.57401c-10.51652,10.95601 -10.65647,11.52565 -6.51242,26.50703c1.36816,4.94613 2.49316,9.78047 2.5,10.74297c0.0248,3.49419 -2.54014,1.59419 -4.74793,-3.51707z"/>
    </g>
    <path stroke="null" d="m29759.299155,20420.619915l-0.7188,6.3125c-0.3982,3.48099 -0.8534,7.01875 -1,7.84375c-0.1466,0.825 -0.5963,3.975 -1,7c-0.4037,3.025 -0.8503,6.175 -1,7c-0.1498,0.825 -1.0468,7.30718 -2,14.40625c-1.6346,12.17273 -1.6404,13.08838 -0.0312,15.8125c1.6706,2.82817 1.6493,2.94551 -1.125,6.4375c-1.5586,1.96156 -3.3439,4.31809 -3.9688,5.21875c-0.6248,0.90069 -1.4652,7.475 -1.8437,14.625c-0.3786,7.15 -0.8273,14.8 -1,17c-0.1727,2.2 -0.6123,8.05 -0.9688,13c-0.3565,4.95 -0.8202,11.7 -1.0625,15c-1.0079,13.72694 -1.4516,19.41294 -2,27c-0.3181,4.4 -0.7658,10.25 -1,13c-0.2342,2.75 -0.6922,9.5 -1.0312,15c-0.3391,5.5 -0.7786,11.8 -0.9688,14c-0.1902,2.2 -0.6305,8.725 -1,14.5c-0.3695,5.775 -0.8214,12.075 -1,14c-0.1786,1.925 -0.6489,8.675 -1.0312,15c-0.3824,6.325 -0.814,12.175 -0.9688,13c-0.512,2.7295 -1.8827,25.3849 -1.9375,32l-0.0625,6.5l6,0.5938c9.6211,0.9766 18.8031,2.0107 21.5,2.4062c1.375,0.2017 4.975,0.6339 8,0.9688c5.833,0.6457 9.1474,1.034 18,2.0937c3.025,0.3621 9.775,0.9561 15,1.3125c5.225,0.3564 14.0752,0.7713 19.6563,0.9375l10.125,0.3125l0.625,-4.8125c0.3299,-2.6479 0.8294,-10.2125 1.125,-16.8125c0.2956,-6.6 0.7397,-15.15 0.9687,-19c0.2289,-3.85 0.6785,-13.75 1,-22c1.1133,-28.57451 1.4323,-31.53983 3.8125,-35.53125c1.2185,-2.04329 8.3087,-10.19065 15.7813,-18.09375c7.4725,-7.9031 15.5767,-16.6041 18,-19.34375c2.4232,-2.73967 4.8562,-5.50501 5.4062,-6.125c9.624,-10.8488 14.2515,-16.16275 19.4375,-22.375c3.4319,-4.11104 9.3502,-10.91664 13.1563,-15.125c3.806,-4.20839 8.4621,-9.40068 10.3437,-11.53125c1.8815,-2.13057 5.6868,-6.35 8.4688,-9.375c2.7819,-3.025 5.0852,-5.98547 5.0937,-6.5625c0.0164,-1.12029 -5.2312,-3.28502 -9.75,-4.03125c-6.9159,-1.14212 -8.8209,-1.79863 -9.9687,-3.4375c-0.9677,-1.38145 -2.5581,-1.73775 -7.3125,-1.625c-3.3301,0.07898 -6.3579,0.64647 -6.75,1.25c-0.8065,1.241 -12.3731,2.67667 -14.625,1.8125c-1.0232,-0.39258 -1.2247,-1.20413 -0.6875,-2.65625c0.7823,-2.1147 0.6087,-3.34772 -2.2188,-16.75c-2.0306,-9.62508 -2.552,-12.49247 -3.25,-18c-0.8002,-6.3135 -3.3596,-8.24391 -13.8125,-10.4375c-6.6928,-1.4045 -8.9567,-2.31141 -9.8437,-3.9375c-1.2489,-2.28968 -1.2233,-10.19488 0.0625,-20.875l0.8125,-6.75l-5.3438,-0.125c-2.9266,-0.06875 -5.65,-0.21387 -6.0625,-0.3125c-0.4125,-0.09862 -4.125,-0.52673 -8.25,-0.96875c-4.125,-0.44203 -8.175,-0.92077 -9,-1.0625c-0.825,-0.14176 -4.626,-0.59678 -8.4375,-1c-3.8116,-0.40323 -7.8616,-0.883 -9,-1.0625c-1.1385,-0.17947 -4.7625,-0.59912 -8.0625,-0.9375c-3.3,-0.3384 -9.6,-1.00689 -14,-1.5c-4.4,-0.49311 -10.7,-1.15395 -14,-1.46875c-3.3,-0.31482 -8.1029,-0.84291 -10.6562,-1.15625l-4.625,-0.5625zm28.5937,171.875c3.858,0.03297 6.4408,1.84052 8.375,5.65625c1.1518,2.27233 2.4188,4.35 2.8125,4.625c1.8726,1.30772 6.4481,13.46154 5.5938,14.84375c-0.5406,0.87456 1.2557,6.38921 3.2187,9.90625c0.6866,1.23026 1.1399,4.60526 1.0313,7.5c-0.2085,5.55652 3.0986,17.80656 6.25,23.2188c1.2688,2.1791 1.8489,5.6936 2.0625,12.5312c0.2925,9.3671 0.2451,9.5055 -2.125,9.8438c-1.322,0.1886 -3.24,1.4261 -4.2813,2.75c-2.1639,2.7508 -3.9848,3.0463 -6.0625,0.9687c-1.7095,-1.7095 -1.1849,-8.8654 0.875,-12.0312c0.728,-1.1191 1.5646,-3.3149 1.8438,-4.875c0.2792,-1.5602 1.0602,-3.5129 1.75,-4.3438c1.9968,-2.4062 1.9204,-4.7771 -0.1875,-6.0937c-1.6466,-1.0282 -2.1323,-0.9087 -3.1875,0.7812c-1.3645,2.1847 -3.7813,2.6992 -3.7813,0.8125c0,-0.6485 0.5283,-2.6069 1.1563,-4.34375c2.6933,-7.44843 -1.692,-13.87559 -7.9688,-11.6875c-2.5606,0.89264 -3.2884,0.7316 -4.9687,-1.125c-1.0777,-1.19077 -2.6385,-4.27529 -3.5,-6.875c-0.8616,-2.59972 -2.6797,-6.19973 -4.0313,-8c-1.7375,-2.3143 -2.3444,-4.16014 -2.0312,-6.28125c0.4036,-2.73472 0.0283,-3.22998 -4.4375,-5.5625c-6.5052,-3.39761 -9.1425,-2.41192 -9.3438,3.46875c-0.0772,2.25346 -0.2904,6.34375 -0.4687,9.09375c-0.8907,13.74088 -0.8933,13.75917 3.1875,17c8.7653,6.96101 9.4674,7.85399 10.875,14c0.7558,3.3 1.3518,7.6216 1.3437,9.5938c-0.008,1.9722 1.1637,5.8967 2.5938,8.7187c3.3421,6.5954 3.4788,11.7222 0.3437,12.5625c-3.3008,0.8846 -4.5572,0.7727 -5.3437,-0.5c-0.6831,-1.1051 -3.4385,-13.8445 -5.375,-24.75c-1.0947,-6.164 -2.5507,-8.0788 -9.5313,-12.59375c-5.5399,-3.58323 -8.2231,-6.38644 -7.9375,-8.28125c0.1036,-0.6875 0.2438,-2.12677 0.3125,-3.1875c0.0687,-1.06072 0.7467,-2.52802 1.5,-3.28125c0.8921,-0.89217 1.3367,-3.69288 1.3125,-8c-0.0369,-6.61053 -0.0132,-6.59713 -3.8437,-8.75c-4.2782,-2.40448 -5.8438,-4.66848 -5.8438,-8.46875c0,-2.06036 0.4894,-2.5625 2.4688,-2.5625c3.7058,0 4.9589,-3.18642 2.5,-6.3125c-1.0879,-1.38303 -1.9688,-3.01062 -1.9688,-3.625c0,-1.31541 4.6949,-3.37133 7.4063,-3.25c2.4,0.1074 7.5937,5.0236 7.5937,7.1875c0,0.90122 1.0459,2.62253 2.3125,3.8125l2.2813,2.15625l1.3437,-3.625c2.2331,-6.17549 6.2895,-11.30233 9.5625,-12.0625c1.5959,-0.37064 3.0265,-0.57349 4.3125,-0.5625z" id="svg_29"/>
    <path stroke="null" d="m30335.653755,20771.052865c-2.2757,-0.5804 -5.0159,-3.6856 -6.653,-7.5394c-0.6455,-1.5195 -2.1741,-3.0139 -3.3969,-3.3208c-4.0563,-1.018 -10.466,-17.7085 -10.5289,-27.4165c-0.0216,-3.3336 -0.6079,-5.0478 -2.2619,-6.6134c-3.891,-3.683 -9.126,-6.379 -12.3939,-6.3829l-3.1612,-0.0037l-0.39,-6.25c-0.2145,-3.4375 -0.2279,-6.5875 -0.0298,-7c0.1981,-0.4125 3.1462,-0.7842 6.5512,-0.8261c7.3514,-0.0903 11.4384,-1.4458 15.6034,-5.1749c1.8883,-1.6907 5.9398,-3.5376 10.5118,-4.7919c6.9097,-1.8957 7.7048,-1.93 11.1682,-0.4829c3.5559,1.4857 3.821,1.4592 5.7132,-0.5719c4.0627,-4.3608 15.7491,-7.8328 15.659,-4.6523c-0.0195,0.6875 -0.6786,2.375 -1.4646,3.75c-2.1168,3.703 -1.9088,12.2088 0.3697,15.1151c1.0283,1.3117 2.1942,3.8709 2.5909,5.6872c0.4415,2.0212 2.522,5.0278 5.3629,7.75c4.4565,4.2704 4.8848,4.4477 10.7424,4.4477c3.3554,0 6.3612,0.2604 6.6795,0.5787c0.3182,0.3183 -1.6683,2.9058 -4.4147,5.75c-2.7463,2.8442 -6.134,7.5759 -7.5281,10.5149c-3.5627,7.5102 -16.072,20.1564 -19.9383,20.1564c-2.1875,0 -3.1725,0.6696 -4.1141,2.7969c-1.8122,4.0941 -8.3566,6.0916 -14.6768,4.4798z" id="svg_28"/>
    <g stroke="null" id="svg_27">
     <path stroke="null" id="svg_36" d="m30447.200755,20661.202065c-2.7652,-3.5154 -2.6889,-7.78273 0.2099,-11.74262c3.0768,-4.20294 3.4181,-9.31097 0.6802,-10.17995c-2.5771,-0.81794 -2.5448,-2.90268 0.1115,-7.20068c1.8986,-3.07202 2.0536,-4.34755 1.4726,-12.11804c-1.0462,-13.9915 -0.7287,-30.41121 0.9026,-46.68461c0.1103,-1.1 0.5446,-5.58659 0.9652,-9.97021c0.8868,-9.24199 2.73,-12.6056 9.9129,-18.0902c3.9286,-2.99966 4.9756,-3.39323 6.2387,-2.34495c3.7491,3.11145 4.5159,6.66458 4.0702,18.86006c-0.2378,6.5058 -0.6808,12.23075 -0.9844,12.7221c-0.3037,0.49134 -0.8423,3.57757 -1.1969,6.85828l-0.6447,5.96492l2.535,-3c1.3942,-1.65 2.5511,-3.30718 2.5708,-3.68261c0.0792,-1.50185 4.227,-1.87778 7.5321,-0.68265c3.7094,1.34135 3.8073,1.52486 3.5286,6.61526l-0.1779,3.25l5.0176,0c2.7596,0 5.2575,-0.38827 5.5508,-0.86283c0.2933,-0.47455 2.6824,-1.45646 5.309,-2.18202c2.6267,-0.72556 7.0258,-2.35743 9.7758,-3.62637c4.97,-2.29331 9.4657,-2.37012 13.6179,-0.23267c2.1763,1.12029 3.1572,6.49055 1.6317,8.93321c-1.0153,1.62585 -0.8875,2.27725 0.773,3.9377c1.7135,1.71352 2.6887,1.87905 7.0286,1.193c6.3866,-1.00958 7.4488,-0.62446 7.4488,2.70081c0,2.83329 -2.0624,6.45467 -5.3471,9.38917c-1.0774,0.9625 -1.4401,1.75 -0.8059,1.75c0.6458,0 1.153,1.50366 1.153,3.41821c0,1.88002 0.2731,4.13002 0.607,5c0.7024,1.83034 2.393,2.13143 2.393,0.42618c0,-1.85681 4.9696,-7.84439 6.5107,-7.84439c0.7774,0 1.9462,1.79302 2.6074,4c1.3646,4.5544 2.7273,4.91352 6.9101,1.82103c1.621,-1.19843 3.2902,-1.83357 3.7095,-1.41142c0.4193,0.42215 0.8673,3.76518 0.9957,7.42896c0.1283,3.66379 0.307,8.3393 0.397,10.39004c0.2364,5.38519 -3.8234,11.24638 -8.0108,11.56546c-2.514,0.19155 -3.3777,-0.26652 -4.2938,-2.27714c-1.4382,-3.15647 -2.1439,-3.1596 -3.8258,-0.01693c-2.7198,5.08204 -4.9498,1.93338 -6.1353,-8.663c-0.868,-7.75837 -2.0007,-10.837 -3.9871,-10.837c-0.4827,0 -0.8776,1.64468 -0.8776,3.65484c0,2.95286 -0.7555,4.37356 -3.9337,7.39688c-3.5601,3.38663 -4.0294,4.43273 -4.9414,11.01387c-1.3414,9.67921 -3.7346,12.25231 -11.5869,12.45781c-6.7668,0.1771 -7.2823,-1.438 -2.038,-6.3846c2.8532,-2.69125 3.5,-4.03192 3.5,-7.25523c0,-3.72993 -0.1212,-3.88907 -2.1394,-2.80897c-3.7929,2.02993 -8.1463,2.93317 -9.3445,1.9388c-1.199,-0.99514 -2.9086,-0.22999 -12.9579,5.79949c-3.0368,1.8221 -6.7673,3.50974 -8.2899,3.75033c-1.5225,0.24058 -4.3104,0.69761 -6.1953,1.01562c-1.8848,0.318 -7.9598,2.39216 -13.5,4.60926c-5.5401,2.217 -10.5813,4.234 -11.2026,4.4822c-0.6213,0.2482 -2.0838,-0.7618 -3.25,-2.2444z"/>
     <path stroke="null" id="svg_37" d="m30322.901155,20589.284835c-0.1764,-0.16482 -2.0346,-0.52579 -4.1293,-0.80215c-2.0947,-0.27636 -4.6749,-1.28654 -5.7339,-2.24485c-1.5253,-1.38044 -3.1231,-1.63863 -7.6914,-1.24291c-7.3176,0.63385 -8.0742,0.32911 -8.7926,-3.54154c-1.192,-6.42222 -1.3221,-7.20022 -1.3971,-8.35579c-0.0421,-0.64822 -0.7674,-1.86945 -1.6118,-2.71385c-1.3803,-1.38037 -1.8596,-1.3375 -4.75,0.42483c-1.7681,1.07806 -4.1575,1.9618 -5.3097,1.96385c-2.5392,0.00453 -6.0404,-3.48554 -4.4701,-4.456c1.1405,-0.70489 1.4099,-6.65347 0.4613,-10.18881c-0.3608,-1.34485 -2.1325,-2.75177 -4.7363,-3.76115c-7.3743,-2.85865 -15.1486,-14.94014 -12.6355,-19.63589c0.5753,-1.07493 1.4913,-1.95441 2.0355,-1.95441c1.0312,0 2.7752,-3.83726 3.2965,-7.2533c0.1663,-1.08936 1.256,-2.71551 2.4216,-3.61368c1.1656,-0.89816 2.5654,-2.82876 3.1106,-4.29021c0.9474,-2.53952 1.1822,-2.61546 5.3014,-1.71486c2.3705,0.51829 5.435,1.71702 6.81,2.66386c3.5224,2.42553 7.1663,1.69614 9.5217,-1.90595c1.8948,-2.89759 2.1895,-2.99575 6.9783,-2.32444c2.75,0.38549 5.7951,0.66928 6.7668,0.63062c1.4328,-0.05699 1.6945,0.58617 1.3843,3.40122c-0.2104,1.90932 -0.5555,3.58763 -0.7668,3.72957c-4.4471,2.98645 -7.8666,6.04215 -8.3109,7.4265c-0.309,0.96287 -1.9131,2.65067 -3.5647,3.75067c-3.5149,2.34096 -3.7259,3.54096 -1.0487,5.96381c2.3953,2.16771 8.3008,1.40556 10.2613,-1.32428c2.3464,-3.26734 7.3652,-5.07809 11.0077,-3.97148c4.7168,1.43302 8.3394,-0.26442 10.42,-4.88256c1.7565,-3.89863 1.9633,-9.07322 0.4241,-10.61239c-0.4975,-0.49747 -1.7766,0.03038 -2.9731,1.2269c-1.3142,1.31419 -3.3791,2.1 -5.5182,2.1c-7.5306,0 -8.2027,-2.00022 -3.5818,-10.65966c1.65,-3.09203 3,-6.64622 3,-7.8982c0,-3.02009 -3.3072,-10.62225 -5.3634,-12.32875c-0.9001,-0.74705 -1.6366,-2.09426 -1.6366,-2.99379c0,-2.7895 -4.9945,-11.4834 -8.2256,-14.31827c-2.1146,-1.85526 -3.313,-4.04298 -3.8344,-7c-0.4172,-2.36573 -1.2795,-7.22633 -1.9161,-10.80133c-0.6367,-3.575 -1.1849,-9.425 -1.2181,-13c-0.0701,-7.53123 -1.9315,-11.55842 -5.7166,-12.36834c-1.424,-0.30472 -4.0517,-1.46489 -5.8392,-2.57815c-3.6152,-2.25155 -4.2106,-5.23709 -1.7461,-8.75563c1.0485,-1.49693 1.2418,-2.85129 0.6382,-4.4725c-0.8885,-2.38675 -0.8534,-3.31037 0.3307,-8.70148c0.7566,-3.44487 0.2005,-3.6487 -8.9031,-3.26315c-2.1616,0.09154 -3.6912,-0.07255 -3.3991,-0.36466c0.2921,-0.29211 -0.2314,-3.78573 -1.1634,-7.7636c-1.3289,-5.67183 -2.1135,-7.29537 -3.6362,-7.52391c-1.0679,-0.16028 -2.4366,-1.08394 -3.0415,-2.05258c-1.4227,-2.27813 -5.5441,-17.27477 -4.9192,-17.89968c1.0463,-1.04627 12.6803,9.26225 16.7312,14.82494c2.3705,3.25531 5.0779,5.91874 6.0162,5.91874c0.9384,0 2.6448,1.31827 3.7921,2.9295c1.1473,1.61122 3.599,3.86457 5.4481,5.00743c2.1947,1.35634 4.108,3.81165 5.5099,7.0705c1.3812,3.21062 2.7625,4.99699 3.87,5.00495c0.9472,0.00681 2.6972,1.5183 3.8889,3.35887c1.6778,2.5915 3.0844,3.49323 6.2344,3.99695c3.5105,0.56134 4.3693,1.23147 6.2689,4.89113c1.2106,2.33237 2.4551,6.02605 2.7656,8.20818c0.5288,3.71699 0.8556,4.04969 5.1769,5.26927c2.5368,0.71598 5.3797,2.14958 6.3174,3.18578c1.5542,1.71737 1.5758,2.31907 0.2443,6.80279c-1.2267,4.13074 -1.2473,5.30776 -0.1288,7.34671c0.7325,1.33537 1.5694,3.55294 1.8598,4.92794c0.4564,2.16153 1.9878,3.00779 11.3113,6.25063c5.9309,2.06284 11.5891,3.75034 12.5736,3.75c0.9846,-0.00035 3.5129,1.86513 5.6186,4.14551l3.8284,4.14614l8.8814,0.40972c4.8848,0.22536 10.5898,1.06428 12.6778,1.86428c3.8976,1.49338 6.3314,0.94884 9.3786,-2.09829c0.9548,-0.95486 2.7855,-0.78745 8.5206,0.77916c4.0175,1.09742 7.574,2.41984 7.9035,2.93872c1.2885,2.02955 -0.3828,5.68906 -3.1152,6.82085c-1.5474,0.64094 -5.2142,3.88353 -8.1486,7.20577c-2.9344,3.32223 -6.6852,7.47065 -8.3352,9.21869c-1.65,1.74805 -5.1029,5.40365 -7.673,8.12355c-4.7793,5.05777 -6.9929,11.06064 -4.4399,12.04031c2.1274,0.81637 12.4143,-10.0193 13.1291,-13.82956c0.4442,-2.36789 2.9606,-5.87447 8.3107,-11.58086c6.9374,-7.39936 8.0299,-8.18462 11.3873,-8.18462c3.0774,0 4.1054,0.56755 5.9997,3.31238c1.9123,2.77077 2.6949,3.19584 4.7861,2.59968c4.7013,-1.34023 9.682,-0.94976 12.1151,0.94978c1.3117,1.02401 5.0849,3.35306 8.3849,5.17567c3.3,1.82261 6.1293,3.40163 6.2874,3.50894c0.1581,0.1073 -0.251,1.37692 -0.9091,2.82137c-1.6841,3.69604 0.2904,9.73425 4.5885,14.03236c3.2796,3.27953 7.5332,10.39869 7.5332,12.60802c0,1.64897 -6.8077,12.06904 -10.2504,15.6896l-3.0407,3.1978l-4.0799,-5.1978c-2.2439,-2.85879 -4.5127,-5.50145 -5.0417,-5.87257c-0.5291,-0.37113 -2.5651,0.13028 -4.5246,1.11424c-1.9595,0.98395 -5.9209,2.34394 -8.8031,3.0222c-2.8822,0.67825 -8.5072,2.48958 -12.5,4.02516c-3.9928,1.53559 -12.2096,4.66545 -18.2596,6.95526c-6.05,2.2898 -13.1493,5.05717 -15.7763,6.14971c-9.5367,3.96625 -30.3198,11.15144 -34.2237,11.83193c-3.2445,0.56554 -5.0515,0.18111 -9.5671,-2.03531c-3.0619,-1.5029 -6.0297,-2.43012 -6.595,-2.06048c-0.5654,0.36963 -1.085,2.47206 -1.1546,4.67206c-0.1564,4.93723 -1.239,13.86437 -1.7444,14.38392c-0.481,0.4945 -5.1961,1.01884 -5.6181,0.62475z"/>
    </g>
    <g stroke="null" id="svg_26">
     <path stroke="null" id="svg_38" d="m30369.740655,20803.454065c-5.8448,-1.264 -8.6858,-4.5674 -11.0509,-12.8494c-1.1573,-4.0525 -1.3453,-6.3929 -0.6587,-8.1987c1.4661,-3.8562 8.0884,-13.6291 12.4349,-18.3509c2.1371,-2.3217 4.4891,-5.0828 5.2267,-6.1358c0.7376,-1.053 2.475,-2.1992 3.8609,-2.547c2.8419,-0.7133 11.5268,-6.563 11.5268,-7.7638c0,-1.041 -4.4875,0.7 -9.8067,3.8047c-9.2463,5.3969 -7.9492,-3.368 2.2057,-14.9045c4.4641,-5.0715 5.5238,-5.7709 8.5964,-5.674c9.5288,0.3004 20.2296,-1.4006 23.7227,-3.771c2.1686,-1.4717 4.168,-2.1333 5.161,-1.7077c0.8915,0.382 3.7039,0.7704 6.2497,0.863c5.272,0.1917 9.4359,2.5076 11.1083,6.1783c1.0665,2.3407 0.6988,2.9622 -5.2955,8.9482c-3.5429,3.538 -7.1166,7.1471 -7.9416,8.0202c-3.5549,3.7624 -12.3505,10.4604 -14.4175,10.9792c-1.3193,0.3311 -3.4554,2.6254 -5.166,5.5485c-2.6774,4.5754 -3.1729,4.9457 -6.0437,4.5162c-2.5876,-0.3871 -3.321,-0.0426 -4.25,1.9964c-0.6175,1.3554 -1.1228,2.9244 -1.1228,3.4868c0,0.5623 -1.3539,4.2747 -3.0087,8.2497c-2.2739,5.4621 -4.6062,8.8645 -9.5492,13.9305c-3.5972,3.6868 -6.6307,6.6412 -6.7412,6.5655c-0.1105,-0.0757 -2.3788,-0.6087 -5.0406,-1.1844z"/>
     <path stroke="null" id="svg_39" d="m30437.055655,20727.494365c-0.8386,-0.67 -3.7093,-3.577 -6.3793,-6.46c-3.5595,-3.8437 -4.5812,-5.5775 -3.8302,-6.5c0.5634,-0.692 2.414,-5.4239 4.1126,-10.5154c3.443,-10.3203 6.689,-17.2428 8.0852,-17.2428c1.7667,0 4.0365,4.4681 4.0501,7.9725c0.022,5.702 0.9692,7.8072 3.8308,8.5141c3.4841,0.8607 8.1555,5.3645 8.1555,7.8629c0,1.0865 -1.3969,4.1523 -3.1042,6.813c-2.2516,3.5087 -3.7436,4.8375 -5.432,4.8375c-1.4449,0 -3.1377,1.1377 -4.4638,3c-2.3688,3.3267 -2.8189,3.4806 -5.0247,1.7182z"/>
    </g>
    <g stroke="null" id="svg_25">
     <path stroke="null" id="svg_40" d="m29478.142855,20029.026165c-1.6967,-0.02914 -4.131,0.27895 -7.625,0.71875c-5.3707,0.67603 -10.3587,1.43668 -11.0937,1.71875c-0.9609,0.36872 -1.1998,1.86694 -0.8438,5.34375c0.5762,5.62827 -0.7007,7.10462 -3.0625,3.5c-0.9124,-1.39253 -1.9747,-2.53125 -2.3437,-2.53125c-1.6675,0 -16.2028,26.30822 -19.0625,34.5c-1.7281,4.95 -3.7992,10.00061 -4.5938,11.21875c-2.2978,3.52222 -1.7497,4.52138 4.8438,9c14.0041,9.5126 14.3842,10.4677 8.625,22.28125c-2.0111,4.125 -3.8918,9.38117 -4.1563,11.6875c-0.4481,3.90648 -0.2106,4.40606 3.4063,7.3125c2.1351,1.71592 3.6909,3.46489 3.4375,3.875c-0.2535,0.41012 -0.5899,3.34397 -0.7188,6.53125c-0.2498,6.17414 -1.4387,8.20727 -5.4687,9.21875c-2.8306,0.7104 -4.4063,3.1389 -4.4063,6.8125c0,1.41116 -0.4158,2.5625 -0.9062,2.5625c-0.4905,0 -1.1682,1.17826 -1.5313,2.625c-0.4808,1.91591 -0.1194,3.22172 1.375,4.8125c1.4282,1.5202 2.0561,3.53761 2.0625,6.625c0.0054,2.61988 0.9911,6.45255 2.4063,9.375c1.6509,3.40925 2.2392,5.97348 1.875,8.21875c-0.355,2.1872 0.1485,4.56611 1.5312,7.21875c2.0256,3.88619 2.0183,4.03471 0.25,9.875c-2.3951,7.91051 -4.82,21.12821 -5.4687,29.75c-0.2898,3.85 -0.7983,7.91524 -1.125,9.03125c-0.3807,1.29982 0.1869,2.9172 1.5625,4.5c2.6592,3.06029 4.2673,6.85814 5.9375,13.96875c1.5029,6.39891 3.4279,10.59539 6.3125,13.75l2.0625,2.25l-2.1563,2.3125c-1.4347,1.52716 -2.1875,3.58727 -2.1875,6.0625c0,2.06321 -0.4821,4.63419 -1.0625,5.71875c-0.9479,1.77113 -0.4134,2.26432 5.25,4.84375c3.4679,1.57951 8.0457,4.05928 10.1563,5.5c3.0446,2.07848 4.5418,2.4768 7.25,1.96875c4.0487,-0.75953 3.7638,-1.78459 3.8437,14.4375l0.0625,12.34375l11,4.4375c35.7027,14.42325 77.8294,28.77928 118.5,40.375c11.825,3.37145 28.025,8.09074 36,10.5c7.975,2.40927 15.85,4.64703 17.5,4.9375c1.65,0.29048 9.75,1.88562 18,3.5625c8.25,1.67688 16.2433,3.26289 17.75,3.53125c1.5066,0.26836 7.3565,1.41605 13,2.53125c5.6434,1.11521 11.6,2.24354 13.25,2.53125c1.65,0.28772 9.3,1.81642 17,3.375c15.7728,3.19258 21.4478,3.65584 21.5625,1.78125c0.0421,-0.6875 0.2421,-2.08654 0.4375,-3.125c0.1954,-1.03847 0.6435,-5.76347 1,-10.5c0.3566,-4.73654 0.8296,-9.75 1.0313,-11.125c0.2016,-1.375 0.6183,-5.425 0.9375,-9c0.911,-10.20923 2.4851,-26.51352 3.0312,-31.5c0.1807,-1.65 0.6359,-7.05 1,-12c0.364,-4.95 0.8275,-9.675 1.0313,-10.5c0.2037,-0.825 0.6329,-5.325 0.9687,-10c0.3359,-4.675 1.0552,-12.22085 1.5938,-16.78125c0.5383,-4.56039 0.7346,-8.70636 0.4375,-9.1875c-0.2975,-0.48112 -6.9479,-4.21112 -14.7813,-8.3125c-16.5671,-8.67402 -33.5578,-17.66501 -46.1875,-24.4375l-8.9062,-4.78125l-6.1563,-10l-6.1562,-10l-11.3125,-2.40625l-11.3125,-2.4375l-9.6875,-13.0625c-5.3321,-7.19532 -13.738,-18.71875 -18.6875,-25.59375c-4.9495,-6.875 -14.7283,-20.30246 -21.7188,-29.84375c-6.9905,-9.5413 -13.3972,-18.41726 -14.25,-19.71875c-1.4476,-2.2094 -1.3119,-2.98623 1.9688,-11.65625c12.34,-32.61114 12.314,-32.44725 6.0937,-40.59375c-1.8837,-2.46708 -3.4375,-4.87284 -3.4375,-5.34375c0,-0.47091 -0.4912,-0.84375 -1.0937,-0.84375c-0.6026,0 -2.2902,-0.8449 -3.75,-1.875c-1.4599,-1.03011 -4.4563,-2.08625 -6.6563,-2.34375c-3.4224,-0.40057 -4.5922,0.02941 -8.125,2.90625c-3.5642,2.90252 -4.4874,3.20398 -6.75,2.34375c-3.3402,-1.26996 -3.2926,-2.01609 0.3438,-5.5c1.6305,-1.56207 2.662,-3.33417 2.2812,-3.9375c-0.3808,-0.60334 -0.7067,-3.42132 -0.7187,-6.28125c-0.0368,-8.66159 -1.3945,-8.66795 -10.0938,0.03125c-4.211,4.21105 -7.8728,7.65625 -8.125,7.65625c-0.7212,0 -3.7987,-3.27566 -3.9375,-4.1875c-0.0687,-0.45179 -0.1813,-6.59454 -0.25,-13.65625c-0.124,-12.73613 -0.1609,-12.84883 -2.6875,-14c-3.589,-1.63528 -5.2481,-1.46184 -8.2187,0.875c-1.9195,1.50983 -3.8329,2.00537 -7.375,1.84375c-3.2405,-0.14785 -4.5067,-0.58673 -3.9375,-1.3125c0.4625,-0.58984 1.066,-2.33571 1.3437,-3.875c0.4526,-2.50903 0.0174,-3.03639 -4.125,-5.125c-4.632,-2.33549 -11.9484,-2.83743 -18.125,-1.28125c-1.375,0.34643 -7.2319,0.88831 -13,1.21875c-7.6463,0.43803 -10.6892,1.00455 -11.2812,2.0625c-0.4466,0.79811 -2.1586,1.4375 -3.7813,1.4375c-2.8019,0 -2.923,-0.21381 -2.9375,-4.25c-0.0175,-4.83719 -0.2049,-6.43589 -3.9375,-6.5zm82.8438,140.15625c26.0064,0.0934 28.0937,0.45499 28.0937,4.625c0,0.97542 -2.1375,3.56477 -4.75,5.78125c-3.1659,2.68597 -4.4165,4.36512 -3.75,5.03125c1.1861,1.18538 14.9712,6.75396 21.8125,8.8125c4.6998,1.41422 4.7907,1.54214 4.125,4.65625c-0.7354,3.44121 -2.1555,5.6875 -3.5937,5.6875c-0.4944,0 -2.6528,1.16445 -4.8125,2.59375l-3.9375,2.59375l-5.7813,-2.6875c-3.1909,-1.47712 -6.6553,-3.13712 -7.6875,-3.6875c-2.5026,-1.33445 -3.942,0.31694 -6.0625,6.875c-2.0178,6.24051 -2.4033,6.56981 -10.2812,9.21875c-3.4201,1.15002 -6.6827,2.09375 -7.25,2.09375c-1.8795,0 -1.0639,-2.88756 1.75,-6.21875c5.8539,-6.93037 5.7833,-6.78125 2.4062,-6.78125c-1.8089,0 -4.2557,1.04217 -6.0625,2.5625c-4.9241,4.14335 -8.6755,4.75311 -13.1875,2.15625c-2.1093,-1.21392 -4.3421,-3.34313 -4.9687,-4.71875c-1.0651,-2.33734 -0.6982,-2.92082 5.9062,-9.21875c3.8869,-3.70655 9.0673,-7.70033 11.5,-8.84375c2.4325,-1.14344 4.6377,-2.91033 4.9063,-3.9375c0.7549,-2.88717 -3.2365,-5.99157 -7.8438,-6.09375c-2.1645,-0.04801 -6.818,-1.06052 -10.3437,-2.25c-5.2637,-1.77574 -6.4855,-2.60016 -6.7813,-4.59375c-0.1982,-1.33543 0.1305,-2.73018 0.7188,-3.09375c0.5881,-0.36355 12.236,-0.6115 25.875,-0.5625zm34,128.59375c0.4109,0 2.2483,2.06749 4.0625,4.59375c1.8142,2.52626 4.8729,6.01375 6.8125,7.75c5.3795,4.81546 9.3353,9.30175 11.8125,13.40625c1.9729,3.26896 3.0338,3.90085 8.875,5.375c6.1965,1.56382 7.0441,1.57389 12.5,0.03125c3.9491,-1.11663 6.5621,-2.56827 8.0312,-4.4375c3.0395,-3.86738 6.7881,-5.54552 13.0938,-5.90625c5.3639,-0.30684 5.4079,-0.27566 5.2187,2.46875c-0.2757,3.99783 -4.2275,8.47411 -8.5625,9.71875c-2.0613,0.59182 -5.6613,2.9337 -8,5.1875c-2.3387,2.2538 -7.175,5.40715 -10.75,7.03125c-3.575,1.6241 -8.2116,3.86076 -10.3125,4.96875c-2.2042,1.16249 -4.883,1.81045 -6.3437,1.53125c-1.7984,-0.34377 -3.4506,0.31791 -5.6875,2.28125c-1.7319,1.51996 -4.8943,3.48252 -7.0313,4.375c-2.137,0.89246 -5.062,1.53518 -6.5,1.40625c-18.4612,-1.65488 -20.2026,-2.28764 -29.0312,-10.5c-7.9522,-7.39716 -7.8744,-9.28125 0.4375,-9.28125c3.0783,0 6.4674,0.46192 7.5312,1.03125c2.2693,1.21446 4.9925,0.06774 9.2188,-3.875c2.2004,-2.05292 3.5878,-2.51182 6.7812,-2.28125c4.5902,0.33143 6.9375,-1.11944 6.9375,-4.3125c0,-2.97361 -4.0713,-14.70129 -7.6875,-22.125c-2.7376,-5.6199 -3.2134,-8.4375 -1.4062,-8.4375z"/>
     <path stroke="null" id="svg_41" d="m29701.580355,20105.757575c-7.15,-2.08339 -18.4,-5.40118 -25,-7.37287c-6.6,-1.97168 -15.6,-4.60093 -20,-5.84278c-7.523,-2.12326 -7.7913,-2.2916 -4.5,-2.82301c1.925,-0.31082 8.45,-0.3694 14.5,-0.13019c8.9141,0.35246 11.8668,0.87156 15.5714,2.73753c4.5896,2.31178 16.8044,5.90746 17.5466,5.16523c0.2182,-0.21823 -2.2899,-2.95947 -5.5737,-6.09165c-6.2476,-5.95921 -11.0814,-8.60999 -15.7622,-8.64371c-3.5545,-0.02561 -19.2993,-4.13016 -25.6725,-6.69262c-4.6358,-1.86393 -4.9864,-2.27391 -6.7353,-7.87681c-1.0146,-3.25079 -1.8515,-6.45397 -1.8596,-7.11818c-0.0132,-1.08803 4.6658,-2.74816 17.9853,-6.38127l4.5,-1.22744l-3.5,-0.80651c-1.925,-0.44358 -4.777,-0.92112 -6.3378,-1.06121c-3.0461,-0.27341 -6.2717,-4.7851 -5.2761,-7.37973c0.292,-0.76081 -0.0238,-1.7327 -0.7016,-2.15974c-0.6779,-0.42705 -2.0386,-2.04296 -3.0238,-3.59092c-2.3603,-3.70843 -1.4976,-7.38154 2.8048,-11.9429c3.9642,-4.2028 5.5345,-6.89537 5.5345,-9.4898c0,-5.08133 14.8327,-13.16955 29.6449,-16.16531c5.4203,-1.09625 11.9383,-2.26903 14.4843,-2.60617c4.4515,-0.58945 4.669,-0.49891 5.665,2.35816c1.2429,3.56536 0.1395,9.3076 -2.9144,15.16654c-1.1697,2.24418 -1.8576,4.34946 -1.5287,4.67841c0.329,0.32895 2.6408,-1.07573 5.1374,-3.1215l4.5392,-3.71958l6.2362,3.5667c3.4298,1.96168 7.3279,4.49573 8.6622,5.63121l2.4261,2.06452l-2.0314,4.80829l-2.0315,4.80829l4.1054,-0.91854c2.2579,-0.5052 4.4056,-1.23024 4.7726,-1.6112c0.367,-0.38096 -0.0021,-2.64857 -0.8202,-5.03913c-0.8181,-2.39057 -1.3434,-4.43926 -1.1673,-4.55266c4.2466,-2.73452 5.7992,-3.44388 6.182,-2.82448c0.5458,0.88321 -21.1886,88.41979 -22.1868,89.35832c-0.3712,0.34908 -6.525,-1.0699 -13.675,-3.15329z"/>
     <path stroke="null" id="svg_42" d="m29602.641755,20040.634035c-0.2523,-0.74683 -0.9086,-5.23924 -1.4585,-9.98313c-0.9117,-7.86423 -1.4897,-9.44164 -6.5514,-17.87777c-3.0533,-5.08888 -5.5415,-9.75751 -5.5293,-10.37474c0.031,-1.56034 2.9939,-4.94551 5.9778,-6.82964c1.375,-0.86822 4.9709,-5.56423 7.9909,-10.43558c3.02,-4.87136 6.341,-9.75701 7.3801,-10.85701c1.0391,-1.1 5.2057,-6.41961 9.2591,-11.82135c7.0505,-9.39576 7.375,-10.06742 7.4884,-15.5c0.0651,-3.12326 0.0353,-6.28523 -0.0664,-7.02661c-0.2455,-1.79124 2.8301,-5.11677 4.2919,-4.64047c0.6358,0.20717 2.8205,0.57426 4.8549,0.81575c2.0343,0.24149 6.0843,1.38405 9,2.53902c2.9156,1.15497 7.1816,2.56626 9.4799,3.13619c3.4163,0.84713 4.3815,1.62582 5.2889,4.26685c0.6106,1.77684 3.5355,5.68483 6.5,8.68443c5.3653,5.42891 5.4164,5.4531 11.2111,5.30008c8.1628,-0.21556 9.2746,1.00492 13.927,15.28967c5.9142,18.15857 5.1334,20.00398 -10.0139,23.66613c-6.96,1.68271 -13.8684,4.69309 -15.5919,6.7943c-0.275,0.33526 -1.8739,1.1644 -3.5531,1.84255c-1.6792,0.67814 -4.1565,2.22759 -5.5052,3.44322c-1.3486,1.21563 -5.4762,4.46024 -9.1724,7.21024c-5.3616,3.98906 -7.4431,6.36308 -10.295,11.74165c-1.966,3.70791 -4.5645,7.27145 -5.7744,7.91898c-1.21,0.64753 -2.1999,1.04082 -2.1999,0.87399c0,-0.27793 -1.2049,-0.05817 -8.5,1.55035c-1.375,0.30317 -5.983,0.79412 -10.24,1.09099c-5.9949,0.41808 -7.8434,0.23363 -8.1986,-0.81809z"/>
     <path stroke="null" id="svg_43" d="m29718.700955,19965.698825c-2.5413,-2.79253 -4.6206,-5.89078 -4.6206,-6.88499c0,-2.47656 3.9482,-4.85334 10.2372,-6.16264c10.1178,-2.10643 13.0807,-5.37503 4.8723,-5.37503c-3.3241,0 -4.6213,-0.52702 -6.0901,-2.47426c-1.7944,-2.37895 -1.9414,-2.40631 -3.8152,-0.7105c-2.3752,2.14945 -8.1315,2.84014 -10.9143,1.30957c-2.9145,-1.60302 -12.2115,-12.69017 -12.9262,-15.4151c-0.6501,-2.47837 1.9285,-6.20971 4.2913,-6.20971c0.7397,0 1.3794,-0.3375 1.4215,-0.75c0.3196,-3.13294 1.1197,-4.84531 3.3529,-7.17626c1.4138,-1.47575 2.5706,-3.56852 2.5706,-4.65061c0,-2.66547 5.7068,-9.42313 7.9578,-9.42313c0.9967,0 2.5493,-1.125 3.4502,-2.5c1.374,-2.09693 2.4188,-2.5 6.4802,-2.5c6.4144,0 10.1118,2.76377 10.1118,7.55839c0,2.84776 0.6332,3.83226 3.822,5.9425c5.1197,3.38808 7.499,8.46122 7.6855,16.38746c0.1651,7.0129 1.6351,9.09825 6.4336,9.12696c4.9279,0.02949 5.0108,0.70827 1.7379,14.23469c-2.2532,9.31213 -3.4904,12.75 -4.5886,12.75c-0.8269,0 -4.0696,1.8 -7.2059,4c-5.3299,3.73871 -6.1577,4 -12.6728,4l-6.9705,0l-4.6206,-5.07734z"/>
     <path stroke="null" id="svg_44" d="m29687.858655,19921.092285c-0.9517,-0.24978 -2.1802,-2.09872 -2.7467,-4.134c-1.3853,-4.97688 0.6988,-7.65464 8.3883,-10.77775c6.6773,-2.71203 8.8967,-2.96025 10.3213,-1.15437c1.8232,2.31102 0.9485,4.91312 -2.5517,7.59035c-1.9124,1.46281 -5.0812,4.12215 -7.0417,5.90965c-1.9604,1.7875 -3.8082,3.1978 -4.1061,3.134c-0.298,-0.0638 -1.3165,-0.31935 -2.2634,-0.56788z"/>
     <path stroke="null" id="svg_45" d="m29678.651755,19904.204735c-0.8643,-0.86428 -1.5714,-2.66428 -1.5714,-4c0,-2.27705 -0.3431,-2.42857 -5.5,-2.42857c-8.8859,0 -11.7531,-4.36549 -7.25,-11.03833c1.6462,-2.43941 3.4614,-3.6427 6.7643,-4.48413c2.4828,-0.63252 6.6754,-2.35665 9.317,-3.83139c2.6415,-1.47475 5.1809,-2.4476 5.6432,-2.1619c0.4623,0.2857 4.0817,-2.51887 8.0431,-6.2324c9.1845,-8.60975 10.7161,-9.38235 18.2676,-9.21457c3.4182,0.07595 7.3398,-0.06381 8.7148,-0.31058c2.9636,-0.53185 7.5034,1.5369 8.3788,3.8181c1.9188,5.00039 -0.1778,10.56447 -4.9973,13.26155c-1.0722,0.60004 -1.821,2.71182 -2.1404,6.03659c-0.4602,4.78889 -0.7681,5.27586 -4.8479,7.66675c-2.396,1.40419 -4.8142,3.40847 -5.3737,4.45396c-1.3294,2.48391 -4.7333,3.51872 -6.5675,1.99652c-2.2089,-1.83319 -1.8605,-8.62997 0.548,-10.6922c1.1,-0.94185 2,-2.05804 2,-2.48042c0,-1.21624 -3.6708,2.01386 -13.5945,11.96245c-9.6249,9.64897 -12.4794,11.03325 -15.8341,7.67857z"/>
     <path stroke="null" id="svg_46" d="m29756.426455,19876.819755c-3.2385,-1.44991 -4.3712,-2.74569 -6.1573,-7.04354c-1.2039,-2.89671 -2.1888,-5.87793 -2.1888,-6.62493c0,-0.74699 -0.9256,-1.92449 -2.0568,-2.61665c-5.3864,-3.29575 -7.6702,-12.75847 -3.0791,-12.75847c2.0453,0 5.1359,2.97403 5.1359,4.94224c0,0.93122 0.8943,1.08566 3.25,0.56122c4.2335,-0.9425 21.555,-1.79226 23.2529,-1.14074c1.0225,0.39241 1.0941,1.4627 0.3222,4.82083c-0.5457,2.37405 -1.1686,5.21645 -1.3843,6.31645c-1.4865,7.5823 -2.8469,11.55751 -4.4524,13.0105c-2.6292,2.37942 -8.0115,2.60638 -12.6423,0.53309z"/>
     <path stroke="null" id="svg_47" d="m29774.080355,19847.897485c0,-0.48327 -1.3175,-1.42439 -2.9277,-2.09137c-1.6102,-0.66699 -3.7204,-2.08863 -4.6893,-3.15921c-1.2687,-1.40197 -2.5212,-1.77966 -4.4771,-1.35008c-1.4935,0.32804 -3.002,0.1328 -3.3523,-0.43387c-1.5327,-2.48003 6.0073,-9.09423 8.5651,-7.5134c0.5329,0.32933 1.6285,0.05138 2.4347,-0.61769c1.2648,-1.04972 8.9355,-0.88697 9.9078,0.21022c0.8657,0.97686 -3.0573,15.83408 -4.1809,15.83408c-0.7042,0 -1.2803,-0.39541 -1.2803,-0.87868z"/>
    </g>
    <g stroke="null" id="svg_24">
     <path stroke="null" id="svg_48" d="m29778.580355,20163.849615c-4.9032,-1.17977 -12.2657,-5.44121 -17.5578,-10.16252c-1.5961,-1.42399 -4.7111,-3.40483 -6.9221,-4.40187c-2.2111,-0.99705 -4.0764,-2.41947 -4.1451,-3.16093c-0.0687,-0.74147 -0.1813,-1.91063 -0.25,-2.59813c-0.2234,-2.23396 -4.3891,-2.06874 -5.11,0.20267c-0.9398,2.96123 -5.9873,5.23212 -12.9298,5.81719c-3.3022,0.27829 -6.5806,1.08265 -7.2854,1.78749c-2.969,2.96902 -8.4135,3.6957 -22.6868,3.02801c-21.2489,-0.99398 -27.5554,-2.09065 -27.6638,-4.81061c-0.028,-0.70111 -0.2355,-3.07475 -0.4611,-5.27475c-0.2257,-2.2 -0.6155,-6.65019 -0.8663,-9.88931c-0.5257,-6.78972 -2.341,-9.20644 -7.5996,-10.11716c-5.965,-1.03308 -18.0222,-9.49554 -18.0222,-12.64907c0,-0.46445 -0.0738,-1.18196 -0.1641,-1.59446c-0.0902,-0.4125 -0.9787,-4.35 -1.9743,-8.75c-0.9956,-4.4 -1.8218,-8.30574 -1.8359,-8.67942c-0.0287,-0.75783 0.1985,-0.69427 43.3332,12.12439c16.9724,5.04381 31.0145,9.01492 31.2048,8.8247c0.1902,-0.19023 5.3424,-20.35372 11.4493,-44.80777c6.1069,-24.45404 11.3299,-45.13323 11.6067,-45.95375c0.2767,-0.82052 2.2963,3.00448 4.488,8.5c3.8736,9.71282 3.9731,10.2636 3.5648,19.72331c-0.4936,11.43528 0.6169,14.47918 4.0353,11.06075c1.7234,-1.72338 1.9663,-3.07249 1.6927,-9.40215c-0.1757,-4.06453 -0.5272,-12.97021 -0.7811,-19.79038l-0.4617,-12.40033l3.1711,-3.32078c2.9599,-3.09953 3.4315,-3.26074 7.0778,-2.41966c2.2598,0.52126 4.9179,2.08987 6.3056,3.72111c2.3177,2.72465 2.3451,2.73117 0.8087,0.19267c-0.8746,-1.44501 -1.9762,-3.97331 -2.448,-5.61844c-1.2163,-4.2412 1.9685,-7.85339 7.9271,-8.99083c5.3448,-1.02028 9.2946,0.81192 13.4255,6.22773c3.7648,4.93603 2.7997,9.09918 -4.0851,17.62036l-5.485,6.78862l0.235,12.52947c0.2633,14.03998 1.1865,22.25878 3.1578,28.11211c1.2236,3.63322 1.1354,4.39706 -1.0734,9.30108c-1.744,3.87224 -2.2454,6.33461 -1.8216,8.9463c0.8932,5.50404 7.1732,13.71579 16.3529,21.38305c10.5817,8.83826 14.3192,15.58816 12.1218,21.89167c-1.0387,2.97966 -1.1014,3.00189 -6.6882,2.37362c-3.1018,-0.34882 -6.0672,-1.03994 -6.5897,-1.53583c-0.5225,-0.49588 -1.4869,-0.9016 -2.143,-0.9016c-2.6263,0 -2.1913,3.2984 1.1173,8.47049c5.512,8.61669 4.4008,14.00085 -3.6754,17.80825c-3.8053,1.79393 -7.2695,2.01687 -12.3489,0.79471z"/>
     <path stroke="null" id="svg_49" d="m30057.192455,20617.009895c-5.1307,-2.05279 -6.1121,-2.83487 -6.1121,-4.87096c0,-2.74129 0.5458,-3.01764 7.4379,-3.76597c4.5973,-0.49917 5.1348,-0.3155 7.7942,2.66321c3.6735,4.1145 3.4961,8.08484 -0.37,8.28356c-1.4508,0.07458 -5.3883,-0.96485 -8.75,-2.30984z"/>
     <path stroke="null" id="svg_50" d="m29847.997055,20427.389355c-0.2292,-0.21275 -4.0161,-0.70535 -8.4154,-1.09467c-4.3992,-0.38931 -8.2242,-0.83876 -8.5,-0.99876c-0.2757,-0.16 -4.1007,-0.61 -8.5,-1c-4.3992,-0.39 -8.2242,-0.83751 -8.5,-0.99447c-0.2757,-0.15696 -3.4263,-0.57816 -7.0013,-0.93601c-3.575,-0.35785 -8.525,-0.87709 -11,-1.15386c-9.4083,-1.05212 -12.8306,-1.40893 -24,-2.50226c-11.6243,-1.13787 -13.3707,-1.51885 -12.616,-2.75226c0.2292,-0.37449 0.7349,-4.9559 1.1239,-10.1809c0.389,-5.225 0.8343,-10.175 0.9895,-11c0.1553,-0.825 0.5778,-5.325 0.9389,-10c0.3611,-4.675 0.8428,-9.625 1.0705,-11c0.2276,-1.375 0.6693,-5.65 0.9813,-9.5c0.6784,-8.36924 1.4052,-16.36431 2.0453,-22.5c0.2582,-2.475 0.6733,-6.75 0.9223,-9.5c1.6315,-18.01224 2.0398,-22.25009 3.0835,-32c0.3532,-3.3 0.7139,-7.03045 0.8015,-8.28988c0.132,-1.89735 -1.2121,-3.0188 -7.8407,-6.54202c-10.1287,-5.38359 -28.6613,-15.17529 -43.5,-22.98323c-6.325,-3.32814 -13.3,-7.03314 -15.5,-8.23334c-3.8675,-2.1099 -5.9328,-4.71153 -13.6053,-17.13826l-3.6052,-5.83929l-11.4197,-2.39638l-11.4197,-2.39638l-5.5628,-7.59061c-3.0596,-4.17484 -14.7236,-20.19061 -25.92,-35.59061c-11.1964,-15.4 -22.9694,-31.5672 -26.1622,-35.92711c-3.1928,-4.35991 -5.8086,-8.40991 -5.8129,-9c-0.0071,-0.97227 12.9212,-36.623 13.564,-37.40391c1.2007,-1.4586 10.8879,7.28015 14.822,13.37076c2.6537,4.10851 9.9908,10.31582 14.7453,12.47473c2.0106,0.91298 3.135,0.91754 4.813,0.01954c1.9097,-1.02204 2.7501,-0.71234 6.5774,2.42389c2.4134,1.9776 5.2487,4.8211 6.3007,6.31887c2.3618,3.36283 6.1854,11.96866 6.1854,13.92178c0,2.57227 -2.5683,4.11189 -8.0122,4.803c-5.4418,0.69084 -9.9878,2.87633 -9.9878,4.80158c0,0.59021 0.9915,2.52016 2.2034,4.28877c1.8734,2.73402 3.7081,3.67395 12.25,6.27552c15.789,4.80882 18.8152,5.2878 26.078,4.12757c3.5494,-0.56702 7.6466,-1.57459 9.1049,-2.23905c2.3831,-1.08579 2.8141,-0.96006 4.2576,1.24181c0.8834,1.34745 4.3061,5.99713 7.6061,10.33262c7.7997,10.24717 10.3762,15.2514 9.8406,19.11345c-0.3202,2.30958 -0.1742,2.68974 0.5976,1.55618c0.6331,-0.92979 0.7919,-5.37532 0.4177,-11.69438l-0.6036,-10.19438l10.5583,-5.25101c6.0648,-3.01624 10.7497,-5.98276 11.008,-6.9704c0.4224,-1.61545 0.1997,-1.6127 -3.6845,0.04544c-2.2738,0.97065 -6.4994,2.36809 -9.3903,3.10541c-4.8959,1.24872 -5.4442,1.2002 -8,-0.70797c-6.7521,-5.04118 -1.0562,-14.59378 9.0944,-15.25219c2.1111,-0.13693 6.1611,-1.00999 9,-1.94014c2.839,-0.93015 6.4091,-1.53641 7.9337,-1.34725c3.3054,0.41014 6.0325,4.14318 6.2553,8.56269c0.0872,1.7293 0.9409,4.65514 1.897,6.50186c2.4912,4.81142 10.1251,12.12215 12.7995,12.25767c1.252,0.06344 2.7263,0.2199 3.2763,0.34769c0.55,0.12778 1.5096,0.30087 2.1325,0.38465c0.6229,0.08377 2.9973,3.01445 5.2765,6.51262l4.1439,6.36031l6.1202,0.63969c3.3662,0.35183 9.0932,0.63969 12.7268,0.63969c3.6335,0 9.7536,0.9 13.6001,2c3.8465,1.1 6.9951,1.99984 6.9968,1.99965c0.0018,-0.00019 0.0932,-1.64109 0.2032,-3.64644c0.11,-2.00535 0.8975,-5.3893 1.75,-7.51989c0.8525,-2.13059 1.55,-5.05085 1.55,-6.48948c0,-2.53332 0.1449,-2.59583 4.6014,-1.985c5.7218,0.78426 11.8986,2.85432 18.6784,6.25971c2.8711,1.44213 5.3755,2.76071 5.5653,2.93018c0.2732,0.24398 -3.3706,13.90608 -5.3964,20.23328c-0.2258,0.70511 0.6507,1.68548 1.9477,2.17859c1.304,0.49579 2.9235,2.38134 3.6229,4.21799l1.2647,3.32141l0.6791,-3c0.4371,-1.93135 0.1346,-4.06865 -0.8493,-6c-0.9079,-1.78219 -1.5456,-5.75415 -1.571,-9.78469c-0.0453,-7.18137 0.958,-8.92012 4.5978,-7.9683c3.5669,0.93277 10.6067,-2.6387 13.8237,-7.01308c2.5354,-3.4476 3.0357,-5.0588 3.0357,-9.77594c0,-4.37802 -0.4497,-6.055 -2,-7.45799c-2.2995,-2.08105 -2.7901,-9.30986 -0.769,-11.33098c1.7107,-1.7107 -4.4437,-7.25905 -10.1357,-9.13758c-3.4357,-1.13386 -4.9634,-2.4845 -7.7663,-6.86621c-2.9775,-4.65464 -3.4852,-6.30881 -3.4615,-11.27796c0.0153,-3.20279 0.5014,-6.70805 1.0801,-7.78945c0.8208,-1.53355 0.4613,-3.32904 -1.6338,-8.15993l-2.6862,-6.19375l1.9362,-5.61246c1.6327,-4.73259 2.5955,-5.9746 6.1418,-7.92249c3.8508,-2.11515 4.1145,-2.50992 3.1261,-4.67928c-0.9306,-2.04236 -0.614,-2.94443 2.2944,-6.53829c7.8308,-9.67629 7.1132,-9.11607 10.734,-8.38034c2.3355,0.47456 3.7077,1.49811 4.5,3.35667c0.6269,1.47065 2.8342,4.15708 4.905,5.96985c6.8142,5.96506 7.7828,8.07393 8.1697,17.78702c0.3406,8.54976 0.4943,9.03662 5.4559,17.28636c6.2444,10.38243 6.9241,16.00951 1.6938,14.02093c-2.022,-0.76873 -2.1725,-0.58486 -1.7694,2.16149c0.2423,1.65094 -0.1579,4.815 -0.8893,7.03124c-1.2469,3.77814 -1.192,4.14122 0.8805,5.81943c1.8363,1.48694 2.8341,1.61768 5.8954,0.77243c3.8294,-1.05735 7.192,-0.43038 14.8479,2.76847c3.1706,1.32477 3.5239,1.76497 2.3421,2.91873c-0.7654,0.74727 -3.4167,1.64082 -5.8917,1.98567c-7.0423,0.98124 -7.5553,2.6384 -2.9117,9.40501c3.6745,5.3545 4.4932,8.06818 4.8588,16.10542c0.1934,4.25113 1.7601,0.17981 2.5013,-6.5c1.1538,-10.39788 2.5054,-13.58276 6.4666,-15.23783l3.5181,-1.46997l6.7175,7.3539c4.6979,5.14293 7.038,8.61448 7.7835,11.54672c1.5952,6.27463 1.3074,10.06565 -0.9341,12.30718c-1.1,1.1 -2,3.28285 -2,4.85078c0,2.92176 1.8385,9.25413 2.9466,10.14922c0.3405,0.275 2.1137,2.8625 3.9405,5.75c1.8267,2.8875 3.6244,5.25 3.9946,5.25c1.5469,0 5.3068,-3.36566 6.1049,-5.46471c0.4732,-1.24459 1.1302,-4.91168 1.4599,-8.14909c0.3298,-3.23741 1.2412,-7.2362 2.0253,-8.8862c0.784,-1.65 2.3347,-6.17408 3.446,-10.05351c1.1112,-3.87944 3.3761,-9.05444 5.0331,-11.5c3.5748,-5.27608 3.777,-7.5428 0.942,-10.56051c-2.3819,-2.53538 -5.2789,-14.54494 -4.2922,-17.79303c1.2964,-4.26712 3.4472,-5.59295 9.0732,-5.59295c4.0439,0 6.7474,0.73826 10.9858,3c3.092,1.65 6.5179,3 7.613,3c1.0951,0 3.4319,1.52766 5.1929,3.3948c1.7609,1.86714 5.1579,4.39282 7.5489,5.61261c4.2105,2.14804 7.884,5.55829 7.9522,7.38235c0.0183,0.48936 -0.7073,1.43132 -1.6125,2.09323c-1.5098,1.10397 -1.4729,1.44378 0.446,4.11024c1.1506,1.59872 2.3804,4.53656 2.7331,6.52853c0.5949,3.36039 0.424,3.69749 -2.3686,4.67098c-1.6554,0.57706 -3.5104,1.98477 -4.1224,3.12823c-0.612,1.14347 -1.9968,2.07903 -3.0775,2.07903c-2.6534,0 -2.4704,1.90924 0.5158,5.38152c1.363,1.58483 2.7574,4.37015 3.0987,6.18959c0.4128,2.20034 1.7131,4.05663 3.8831,5.54354c7.0831,4.85343 7.0877,14.8888 0.0125,26.97972c-8.3781,14.31735 -8.959,14.95135 -13.3115,14.52773c-2.1215,-0.20649 -5.0493,-1.15648 -6.5063,-2.1111l-2.6489,-1.73566l1.57,3.75753c1.7436,4.17312 0.6528,5.96083 -2.9518,4.83767c-3.7101,-1.15602 -5.1525,-1.09846 -6.7207,0.26818c-1.3617,1.18676 -2.0909,1.17975 -5,-0.0481c-1.8731,-0.79061 -4.0807,-2.39188 -4.9057,-3.55838c-1.2653,-1.78911 -2.1258,-2.01759 -5.5,-1.46045c-2.2,0.36326 -4.7972,1.07925 -5.7716,1.5911c-1.5856,0.83288 -1.3918,1.28887 1.845,4.34158c3.3843,3.19178 3.571,3.68143 2.9055,7.62022c-0.5127,3.03466 -2.2073,5.97295 -6.0728,10.52952c-2.9488,3.47613 -5.6454,7.45099 -5.9923,8.83302c-0.3468,1.38202 -1.1443,2.51501 -1.7722,2.51774c-0.6279,0.00273 0.1388,1.0296 1.7038,2.28194c2.4037,1.9235 2.7979,2.89296 2.5397,6.24503c-0.1682,2.18243 -1.028,5.09306 -1.9106,6.46806c-0.8827,1.375 -2.4994,3.85 -3.5928,5.5c-1.0934,1.65 -3.9891,6.47772 -6.4348,10.72826c-5.0623,8.7978 -6.701,9.77174 -16.4411,9.77174c-7.1577,0 -9.1569,1.44607 -9.6776,7c-0.3229,3.44365 -0.4007,3.499 -4.8282,3.4379c-2.475,-0.03416 -5.7302,-0.34053 -7.2337,-0.68083c-4.0066,-0.9068 -4.2696,0.75862 -0.5281,3.34263c1.794,1.23894 3.4313,2.3803 3.6384,2.53635c1.0462,0.78833 1.1607,8.72105 0.1691,11.72543c-1.3229,4.00858 -5.0385,5.93906 -11.9849,6.22696c-7.8522,0.32543 -7.4772,0.15339 -5.8014,2.66156c1.4164,2.11981 1.2933,2.4545 -2.128,5.78416c-5.0684,4.93266 -10.9164,12.64383 -13.625,17.96584c-1.2596,2.475 -3.2849,5.39894 -4.5007,6.49764c-2.6364,2.3826 -5.0057,6.71975 -5.0057,9.16338c0,0.96819 -2.3287,6.6873 -5.175,12.70914c-4.3436,9.1899 -5.1575,11.80674 -5.0667,16.28932l0.1082,5.34052l-4.2666,0c-2.3466,0 -4.4541,-0.17407 -4.6832,-0.38681z"/>
     <path stroke="null" id="svg_51" d="m30049.937255,20372.082805c-5.3281,-3.30631 -5.1119,-13.07574 0.422,-19.06593c2.2465,-2.4317 4.7888,-2.26184 7.9711,0.53256c3.2035,2.81302 1.6221,14.40465 -2.4874,18.23324c-2.5543,2.37976 -2.5544,2.37976 -5.9057,0.30013z"/>
     <path stroke="null" id="svg_52" d="m29998.143055,20360.893395c-2.322,-4.33869 0.959,-14.18145 5.8356,-17.50668c3.907,-2.66404 5.0051,-2.89916 12.7304,-2.7257c4.7039,0.10561 5.231,0.36224 6.3646,3.09898c1.1254,2.71695 0.9544,3.42256 -1.9117,7.88894c-4.1672,6.49412 -10.1082,10.37365 -16.7345,10.92783c-4.4657,0.37349 -5.3037,0.14903 -6.2844,-1.68337z"/>
     <path stroke="null" id="svg_53" d="m29975.830355,20339.011175c-1.366,-0.29791 -1.75,-1.4188 -1.75,-5.10833c0,-2.59968 -0.54,-5.26668 -1.2,-5.92668c-0.66,-0.66 -3.6975,-1.24486 -6.75,-1.29968c-11.8059,-0.21204 -13.6405,-2.76149 -7.0918,-9.85503c3.7631,-4.07615 4.4251,-5.8719 4.2565,-11.54529c-0.5839,-19.64751 0.008,-25.88927 3.9051,-41.17998c1.2174,-4.77649 1.5932,-5.2312 4.8246,-5.83742c3.0473,-0.57166 3.801,-0.28726 5.7771,2.17998c1.25,1.56058 3.0615,4.74823 4.0256,7.08367c1.4997,3.63292 2.1862,4.25459 4.7529,4.30395c1.9786,0.03806 5.894,2.07719 11.5,5.9891c4.675,3.26228 11.3031,7.8505 14.7292,10.19605c3.426,2.34556 6.2409,4.93965 6.2551,5.76465c0.0143,0.825 1.1346,3.3 2.4896,5.5c1.355,2.2 2.4777,4.79143 2.4949,5.75874c0.0271,1.52912 0.7166,1.68014 5.2812,1.15676c4.7174,-0.5409 5.6248,-0.31351 8.9441,2.24127c3.2085,2.46952 3.6489,3.30327 3.3508,6.34323c-0.5064,5.16397 -1.1965,6.28316 -5.3121,8.61478c-3.7318,2.11423 -3.734,2.11427 -8.2328,0.16713c-2.8908,-1.25119 -5.814,-1.77687 -8.1746,-1.47005c-2.9152,0.3789 -4.1178,0.0058 -5.8194,-1.80553c-1.1797,-1.25571 -2.0012,-3.08311 -1.8255,-4.06088c0.4698,-2.61441 -8.5424,-7.21992 -10.6711,-5.45325c-0.8302,0.68898 -1.5094,2.29329 -1.5094,3.56515c0,3.55789 -1.8171,7.53994 -4.7958,10.50982c-1.4873,1.48292 -3.7049,4.02103 -4.928,5.64024c-3.1372,4.15318 -7.0377,8.26972 -7.9785,8.42021c-2.5127,0.40198 -5.0092,0.44293 -6.5477,0.10739z"/>
     <path stroke="null" id="svg_54" d="m29844.475355,20181.431925c-3.3516,-1.08935 -7.6267,-3.9175 -11.895,-7.86909c-1.65,-1.52758 -3.3805,-2.7795 -3.8456,-2.78204c-1.9782,-0.01083 -6.6544,-4.30068 -6.6544,-6.10459c0,-2.51295 15.8548,-23.90004 17.7177,-23.90004c2.5112,0 11.7172,9.69445 14.3995,15.16357c4.0604,8.27894 6.8828,16.1078 6.8828,19.09157c0,2.0427 -0.9528,3.34703 -3.8415,5.25864c-3.956,2.618 -7.3012,2.9173 -12.7635,1.14198z"/>
     <path stroke="null" id="svg_55" d="m30215.826455,20332.188895c-0.1846,-0.18454 -6.5244,-0.60072 -14.0886,-0.92485c-10.8252,-0.46386 -14.1991,-0.95108 -15.848,-2.2886c-1.1523,-0.9346 -3.5221,-2.90991 -5.2663,-4.38958c-2.6608,-2.25727 -3.9657,-2.64458 -8.1072,-2.40627c-5.4583,0.31407 -8.7187,-0.61964 -19.1758,-5.49161c-6.287,-2.92913 -7.2077,-3.72282 -8.3565,-7.20368c-1.1444,-3.46738 -1.0986,-4.01956 0.4026,-4.85969c1.8628,-1.04245 2.2873,-2.84845 0.6696,-2.84845c-0.5633,0 -3.2611,-1.53877 -5.9952,-3.41948c-2.734,-1.88072 -6.331,-3.71819 -7.9932,-4.08327c-1.9118,-0.4199 -3.5615,-1.70652 -4.4898,-3.50168c-2.2077,-4.26918 -7.3131,-7.41762 -12.9586,-7.99133c-4.2077,-0.4276 -5.3028,-0.16226 -7.205,1.74576c-1.6381,1.64309 -3.4138,2.25 -6.5829,2.25c-3.6814,0 -4.9904,0.60679 -8.6293,4l-4.2896,4l-8.294,0c-13.7885,0 -16.8972,-2.52698 -18.1982,-14.7932c-0.4525,-4.26574 -0.2107,-4.98202 2.5803,-7.64389c2.3777,-2.26766 3.0796,-3.79813 3.0796,-6.71482c0,-2.57699 0.5562,-4.07323 1.75,-4.70743c0.9625,-0.51134 7.0918,-0.99566 13.6206,-1.07628c10.7635,-0.1329 12.1624,-0.36488 15,-2.48742c4.4387,-3.32026 9.1716,-5.57696 11.6964,-5.57696c1.7774,0 2.0466,-0.40388 1.4994,-2.25c-0.7845,-2.64736 -1.3828,-5.00309 -1.4899,-5.86711c-0.0421,-0.33942 -1.9301,-1.84379 -4.1957,-3.34307c-3.8725,-2.56269 -4.0883,-2.95632 -3.6032,-6.5728c0.2838,-2.11577 1.1709,-5.11139 1.9713,-6.65694c0.8005,-1.54554 3.7834,-7.38695 6.6287,-12.98091l5.1733,-10.17083l-1.9588,-7.06849c-1.8652,-6.73071 -7.704,-16.0331 -12.6291,-20.12057c-0.9543,-0.79196 -2.8077,-3.1391 -4.1187,-5.21587c-1.3615,-2.15686 -4.4989,-4.95028 -7.3168,-6.51468c-3.9383,-2.18646 -5.1023,-3.44451 -5.7723,-6.23873c-0.7533,-3.14154 -1.1422,-3.46493 -3.7972,-3.15753c-1.6269,0.18835 -3.633,0.92342 -4.458,1.63349c-0.825,0.71006 -3.3685,2.23012 -5.6521,3.37792c-3.5528,1.78564 -4.3226,1.88157 -5.3326,0.6645c-1.6754,-2.01864 -0.3355,-5.54352 3.323,-8.74224c3.0458,-2.66298 3.0713,-2.75727 1.1386,-4.2182c-2.5377,-1.91824 -3.8844,-1.91569 -7.6168,0.01441c-3.9094,2.02164 -5.8601,1.22668 -5.8601,-2.38815c0,-1.92917 0.6699,-3.1775 2.0312,-3.78492c1.8921,-0.84429 1.7038,-1.22534 -2.75,-5.56576c-8.1289,-7.92183 -12.7283,-11.56214 -14.0312,-11.10522c-0.6875,0.2411 -1.25,1.97587 -1.25,3.85503l0,3.41667l-10.25,0.23484c-5.6375,0.12917 -13.2298,0.17515 -16.8719,0.10219c-5.5815,-0.11182 -6.6027,0.12621 -6.5,1.51516c0.1049,1.41829 -1.062,1.63311 -8.3781,1.54227c-4.675,-0.05804 -13.225,-0.45127 -19,-0.87383c-6.433,-0.47072 -11.8904,-0.38136 -14.0898,0.23069c-4.4221,1.23063 -7.7519,-0.84837 -9.4811,-5.91965c-0.9726,-2.85224 -1.5529,-3.29547 -4.0326,-3.08012c-11.798,1.02459 -12.3739,0.97843 -15.3698,-1.23184c-6.6202,-4.88426 -12.0267,-12.68451 -12.0267,-17.35167c0,-1.49775 0.9749,-2.02982 4.6396,-2.53212c2.5517,-0.34975 6.4732,-0.63592 8.7143,-0.63592c3.4947,0 3.8663,-0.1948 2.6104,-1.36865c-2.1685,-2.02691 -7.6943,-3.63135 -12.5065,-3.63135c-3.1026,0 -4.4361,-0.4706 -4.959,-1.75c-1.7668,-4.32307 -3.2124,-12.65909 -2.9485,-17.00179c1.2515,-20.59173 1.6431,-22.92986 5.9363,-35.44018c6.2403,-18.18435 10.8765,-26.59379 16.5134,-29.95331c8.9373,-5.3265 23.4226,-3.84525 25.1385,2.57063c0.6653,2.48765 0.2762,3.48016 -2.6221,6.68823c-1.9635,2.17333 -3.7027,5.37886 -4.1108,7.57676c-0.389,2.09531 -1.3775,4.83948 -2.1967,6.09815c-1.8061,2.77522 -4.3389,13.19207 -3.527,14.50578c0.3206,0.51886 0.7156,4.25476 0.8776,8.302c0.3293,8.22624 0.7539,9.40373 3.3911,9.40373c1.1661,0 2.0822,-1.00009 2.5189,-2.75c0.3775,-1.5125 1.4198,-3.56384 2.3164,-4.55854c1.3122,-1.45589 1.394,-2.13834 0.4197,-3.5c-2.5108,-3.50878 -3.5608,-6.84211 -3.6321,-11.52981c-0.0566,-3.72675 0.3972,-5.22012 1.9751,-6.5c1.1268,-0.91391 2.3502,-2.44915 2.7186,-3.41165c0.3685,-0.9625 1.1342,-1.75 1.7014,-1.75c0.5673,0 1.0314,-0.91103 1.0314,-2.02451c0,-3.5687 7.6135,-14.38998 11.7665,-16.72412c4.4177,-2.48289 13.9806,-4.25898 16.9724,-3.15224c1.8009,0.66616 3.4959,3.22029 9.557,14.40087c3.8239,7.05357 6.6554,14.84594 6.1403,16.89821c-0.7132,2.84158 2.977,7.60366 5.8864,7.59621c1.1976,-0.00306 3.8866,-0.48021 5.9756,-1.06032c3.1326,-0.86989 3.689,-1.39904 3.1748,-3.01918c-1.0843,-3.41616 4.97,-8.34084 12.0925,-9.83634c5.6432,-1.18489 6.3047,-1.12777 9.5,0.82019c1.889,1.15156 4.5595,2.11162 5.9345,2.13345c3.1224,0.04959 7.5291,3.66137 8.5014,6.96778c0.9923,3.37428 3.4279,6 5.5657,6c1.2707,0 1.9442,1.10738 2.4329,4c0.3717,2.2 1.0665,4 1.544,4c0.4775,0 3.3732,2.48507 6.4349,5.52238c4.5847,4.54825 5.6637,5.20974 6.1169,3.75c0.3026,-0.97481 1.1895,-3.24417 1.9709,-5.04302c1.5698,-3.61407 2.5191,-3.66273 11.1926,-0.57374c3.6317,1.2934 4.5722,2.24413 6.3825,6.45237c1.2462,2.89686 3.2752,5.61601 4.9123,6.58306c1.5341,0.90617 3.3016,2.60513 3.928,3.77547c2.0984,3.92088 4.5353,4.70093 7.4713,2.39151c3.1859,-2.50604 5.6127,-2.04154 11.4586,2.19319c3.7299,2.70189 4.2042,3.45718 3.6287,5.77847c-1.7184,6.9323 -1.7872,8.25152 -0.4149,7.96009c0.7504,-0.15938 2.1475,-1.52728 3.1046,-3.03978c2.5207,-3.98345 5.5901,-3.54264 10.4446,1.5c4.5904,4.76828 6.7459,8.28925 6.8874,11.25c0.2663,5.57425 0.5776,6.19634 3.8924,7.77706c1.9002,0.90612 4.1515,2.99471 5.003,4.64131l1.5482,2.99383l-4.5659,2.67577c-3.7566,2.20149 -4.9801,2.487 -6.9032,1.61079c-3.1013,-1.41303 -3.7883,-0.51212 -1.8572,2.43523c1.5139,2.31049 1.4501,6.44392 -0.1624,10.51389c-0.8667,2.18761 2.4864,5.23705 7.3663,6.69909c2.1057,0.63088 5.5808,2.33971 7.7225,3.79739c2.1416,1.45768 5.4689,2.7228 7.3939,2.81139c1.925,0.08859 4.625,0.63056 6,1.20438c1.375,0.57382 5.1084,0.84638 8.2965,0.6057l5.7964,-0.43762l5.3672,5.5859c4.7071,4.89896 5.8697,5.60126 9.4535,5.71089c2.2475,0.06875 4.6305,0.18125 5.2954,0.25c0.665,0.06875 1.5128,1.61034 1.8841,3.42575c0.3713,1.81541 0.9679,3.59361 1.3259,3.95157c0.3579,0.35795 3.7767,-0.43313 7.5973,-1.75796l6.9464,-2.40878l3.7687,2.14794c3.518,2.00509 3.7892,2.49749 4.0777,7.40376c0.3805,6.47007 -0.1744,8.82487 -2.79,11.84064c-1.9065,2.19824 -1.9298,2.46328 -0.3685,4.18847c1.3404,1.48116 1.4501,2.31726 0.5601,4.27062c-0.6087,1.33589 -0.8515,4.00177 -0.5395,5.92417c0.735,4.52926 -2.6082,9.63882 -6.3067,9.63882c-2.1313,0 -2.3968,0.33126 -1.8036,2.25c1.069,3.4573 4.2914,9.54069 5.4248,10.24117c2.0905,1.29199 0.8838,3.36438 -3.1093,5.34002c-4.0579,2.00768 -4.1793,2.01032 -7.6203,0.16609c-1.9232,-1.03077 -5.7079,-2.44083 -8.4104,-3.13347c-4.2489,-1.08895 -5.3747,-1.9538 -8.3203,-6.39155c-3.8268,-5.76527 -10.7944,-12.47226 -12.9569,-12.47226c-0.7841,0 -2.0203,-0.58092 -2.7471,-1.29092c-4.0461,-3.95269 -10.8214,-6.37546 -10.8214,-3.8696c0,0.46172 -1.19,1.38171 -2.6445,2.04442l-2.6446,1.20493l2.722,2.84116c3.2498,3.39208 3.2363,7.94429 -0.0284,9.56201c-1.5716,0.77876 -1.9016,1.53452 -1.3202,3.02317c0.4263,1.09166 0.8068,1.64129 0.8454,1.22141c0.1151,-1.24988 7.3049,2.15334 8.6716,4.10461c0.694,0.99074 3.0787,3.83138 5.2993,6.31254c3.9302,4.39116 5.2738,5.0556 15.7435,7.78571c3.1187,0.81323 4.297,1.6896 4.7618,3.54173c0.3398,1.3536 1.519,2.94344 2.6205,3.53296c1.1015,0.58953 3.1089,2.82407 4.4608,4.96567c1.352,2.14159 5.6315,7.13075 9.51,11.08702l7.052,7.19323l-0.206,13.92306c-0.1133,7.65768 -0.5273,14.12163 -0.92,14.36432c-1.0875,0.67218 -19.2259,-5.12982 -28.8643,-9.23295c-4.7074,-2.00397 -9.9464,-4.83993 -11.6422,-6.30214c-2.8525,-2.4595 -5.6851,-2.9741 -11.6667,-2.11949c-1.7089,0.24415 -0.5609,1.94282 2.0414,3.02074c1.5353,0.63593 3.6068,2.67034 4.6034,4.52091c1.4872,2.76159 3.1826,3.8858 9.4586,6.27217c4.2056,1.59912 12.4851,6.03181 18.3988,9.85041l10.7522,6.94292l-0.2522,6l-0.2522,6l-5.7092,0.12412c-3.1401,0.06827 -5.8602,-0.02686 -6.0447,-0.21139z"/>
     <path stroke="null" id="svg_56" d="m30070.335455,20328.464015c-3.7585,-2.53419 -4.9298,-5.16999 -3.2153,-7.23584c1.6546,-1.9937 3.6334,-1.82092 7.0558,0.61608c3.0538,2.17448 3.8139,5.62246 1.7044,7.73191c-1.5304,1.5304 -1.6659,1.50322 -5.5449,-1.11215z"/>
     <path stroke="null" id="svg_57" d="m30081.271355,20317.062705c-1.8306,-0.34972 -2.2449,-0.9948 -2,-3.11382c0.2344,-2.02763 0.9312,-2.74508 2.8867,-2.97252c3.362,-0.39101 7.2761,2.71414 6.3765,5.05856c-0.6509,1.69631 -2.4391,1.94935 -7.2632,1.02778z"/>
     <path stroke="null" id="svg_58" d="m30065.089055,20205.938745c-6.7342,-6.73426 -4.5149,-27.50866 3.4998,-32.76007c3.5503,-2.32628 8.9837,-1.08194 12.6095,2.8878c2.8135,3.08041 2.882,3.41933 2.882,14.25824c0,12.38529 -0.4271,13.26487 -8.1511,16.78669c-5.148,2.34727 -7.5837,2.08378 -10.8402,-1.17266z"/>
     <path stroke="null" id="svg_59" d="m30092.580355,20187.584775c-2.9822,-1.39819 -5.4854,-5.21412 -4.4837,-6.83493c1.1968,-1.93653 9.1221,-1.38008 10.7337,0.75364c1.9206,2.5428 1.5076,4.09029 -1.5,5.62016c-1.8897,0.96121 -3.3757,1.10547 -4.75,0.46113z"/>
     <path stroke="null" id="svg_60" d="m30032.747055,20161.109495c-1.0476,-1.04759 -0.8249,-1.6465 1.7066,-4.58996c1.4763,-1.71657 2.6262,-4.68212 3.0478,-7.86003c0.6507,-4.90533 2.961,-9.88334 4.5869,-9.88334c1.4946,0 1.9753,3.16258 0.809,5.32244c-0.6467,1.19766 -1.0803,3.65002 -0.9636,5.44969c0.3536,5.45244 -6.5755,14.17248 -9.1867,11.5612z"/>
     <path stroke="null" id="svg_61" d="m29828.394655,20089.724135c-2.5737,-2.12673 -4.7465,-4.67255 -4.8284,-5.65738c-0.8963,-10.76874 -2.4936,-13.48856 -11.5778,-19.71315c-1.7432,-1.19446 -4.597,-4.85053 -6.3417,-8.12459c-3.0922,-5.80292 -3.1365,-6.06618 -1.7563,-10.45285c0.7787,-2.475 2.5119,-5.32503 3.8515,-6.3334c2.4218,-1.82289 2.4664,-1.81028 7.7776,2.19973c5.1327,3.87525 5.4067,3.96143 6.9993,2.20167c0.9116,-1.0073 2.12,-3.5068 2.6854,-5.55446c0.8815,-3.19251 0.7471,-4.02869 -0.943,-5.86827c-4.7898,-5.21351 -5.978,-8.45688 -4.9251,-13.44356c1.1417,-5.40671 4.1689,-10.20171 6.4406,-10.20171c0.8581,0 3.9215,1.35102 6.8076,3.00226c4.5036,2.5767 5.4181,2.79657 6.4517,1.55115c2.4538,-2.95669 13.434,-5.27579 15.7943,-3.33588c0.7119,0.58514 1.25,3.29606 1.25,6.29793c0,4.09447 -0.3905,5.42194 -1.75,5.94897c-1.6667,0.64611 -1.6667,0.73978 0,1.96723c2.5688,1.89183 2.2231,2.96889 -2.75,8.56834c-2.475,2.78672 -4.5,5.52515 -4.5,6.0854c0,0.56025 1.35,1.48925 3,2.06444c2.3094,0.80506 3.0034,1.65636 3.0147,3.69799c0.0081,1.45869 0.6638,3.77717 1.4571,5.15217c2.9778,5.16145 3.6955,7.69135 4.1637,14.67753c0.4286,6.39474 0.209,7.60848 -2.0134,11.12898c-2.5871,4.0983 -8.1096,8.19349 -11.0492,8.19349c-0.93,0 -1.4364,0.4119 -1.1252,0.91533c0.9776,1.58178 -4.1485,6.65728 -7.8804,7.80264c-3.3791,1.03708 -3.8284,0.88628 -8.253,-2.77z"/>
     <path stroke="null" id="svg_62" d="m29869.715255,20070.703585c-2.1271,-1.67315 -2.6349,-2.91329 -2.6349,-6.4349c0,-2.39928 -0.4643,-5.58346 -1.0317,-7.07595c-2.3517,-6.1855 -0.5144,-29.13286 2.9617,-36.99132c1.1532,-2.60686 2.3707,-6.45327 2.7056,-8.54757c0.8499,-5.31536 3.903,-7.04891 14.9846,-8.50817c3.0165,-0.39723 5.2159,0.01637 8.2102,1.54396c2.2495,1.14759 5.0223,2.08653 6.1619,2.08653c2.8878,0 8.7796,2.58866 12.7034,5.58148c3.2918,2.51081 3.2977,2.53078 1.6833,5.71906c-0.8911,1.7597 -2.2607,3.93176 -3.0436,4.8268c-0.7828,0.89503 -1.6551,2.92003 -1.9383,4.5c-0.2832,1.57996 -2.0288,5.12266 -3.879,7.87266c-1.8935,2.81438 -3.9143,7.55768 -4.6228,10.85113c-0.6924,3.21813 -1.7395,5.99741 -2.3271,6.1762c-0.5875,0.17878 -3.9617,0.57426 -7.4982,0.87885c-3.5365,0.30459 -6.7648,0.9003 -7.1739,1.32381c-0.6041,0.62527 -1.5459,7.79454 -1.8383,13.99433c-0.0758,1.60583 -5.3043,4.27568 -8.3733,4.27568c-1.3281,0 -3.6005,-0.93266 -5.0496,-2.07258z"/>
     <path stroke="null" id="svg_63" d="m30014.244755,20037.526165c-4.6397,-7.54442 -11.3068,-21.93647 -10.7882,-23.28803c0.8655,-2.25539 21.0016,-1.99222 25.2453,0.32995c5.7494,3.14611 12.8736,10.56365 16.2206,16.88863c1.96,3.70386 -0.902,5.49137 -8.3596,5.22101c-4.7743,-0.17309 -7.2244,0.2832 -10.3953,1.93599c-6.1007,3.17983 -9.4884,2.87081 -11.9228,-1.08755z"/>
     <path stroke="null" id="svg_64" d="m29914.580355,19990.250075c-2.2,-1.35501 -5.3765,-2.46597 -7.0589,-2.46879c-5.121,-0.00857 -6.6112,-1.87965 -6.9866,-8.77239c-0.1839,-3.37684 -0.7851,-6.98193 -1.336,-8.01131c-1.5647,-2.92373 -2.1704,-12.25601 -0.9441,-14.54737c0.6038,-1.12815 1.1785,-4.55382 1.2772,-7.61261c0.1514,-4.69082 -0.2476,-6.10935 -2.5486,-9.06144c-1.5004,-1.925 -2.8845,-4.4 -3.0757,-5.5c-0.2997,-1.724 -1.3812,-2.08342 -7.8375,-2.60453c-4.1194,-0.33249 -8.2199,-0.92112 -9.1123,-1.30806c-2.2708,-0.98465 -11.4561,-12.60849 -12.1389,-15.36161c-0.3102,-1.25082 -0.1331,-3.83481 0.3935,-5.74221c1.1498,-4.16402 3.5829,-5.02751 11.5335,-4.09308c8.2553,0.97026 13.1762,4.08506 14.7828,9.35717c0.8234,2.70203 3.3838,3.44302 10.0516,2.90897c7.9861,-0.63964 11.4544,1.30301 11.4847,6.43283c0.0106,1.7872 0.7944,2.94448 2.53,3.73528c3.8322,1.74604 4.8873,4.97983 3.2117,9.8433c-1.3975,4.05638 -1.3856,4.10174 1.9337,7.3472c1.8369,1.7961 3.3399,4.26992 3.3399,5.49738c0,1.86058 0.7068,2.336 4.25,2.85862c2.3375,0.34479 8.075,1.37263 12.75,2.28411l8.5,1.65722l5.5965,-2.65629c3.0781,-1.46097 6.073,-2.6563 6.6554,-2.6563c0.5824,0 2.9701,-1.59676 5.306,-3.54835c4.1581,-3.47403 4.4167,-3.54433 12.3446,-3.35678c9.3536,0.22127 12.2162,1.04585 19.0975,5.5011c8.2748,5.35742 12.7007,12.80328 9.5083,15.99577c-0.6557,0.65566 -0.5878,2.06199 0.2003,4.1499c1.0001,2.64962 0.9311,3.44802 -0.4288,4.95826c-0.8914,0.99006 -1.7838,3.3751 -1.9831,5.3001c-0.3158,3.04981 -0.9827,3.80959 -5.185,5.90693c-8.3028,4.14383 -20.4045,4.11353 -22.2649,-0.05575c-0.809,-1.81301 -1.1521,-1.91676 -2.4204,-0.73184c-0.8128,0.75936 -3.4912,2.377 -5.9521,3.59475c-3.8758,1.91795 -6.4806,2.26523 -19.4743,2.59636c-16.0335,0.4086 -19.7433,-0.35108 -20.9965,-4.29948c-0.8728,-2.74998 -1.5805,-2.55853 -5.5035,1.48903c-1.8658,1.925 -3.8666,3.48596 -4.4462,3.46879c-0.5796,-0.01716 -2.8538,-1.13986 -5.0538,-2.49488z"/>
     <path stroke="null" id="svg_65" d="m29880.580355,19987.051255c-2.0575,-0.50706 -13.1256,-8.04351 -15.927,-10.84497c-2.4444,-2.44442 -1.8989,-5.5969 2.3483,-13.56935c3.3615,-6.30978 4.468,-7.54922 7.75,-8.68062c4.5284,-1.56107 9.2939,-0.48724 13.5541,3.05422c2.5944,2.15663 2.7575,2.82632 3.3911,13.92004c0.6629,11.60797 0.6552,11.66476 -1.93,14.25c-2.4803,2.48029 -4.798,2.95224 -9.1865,1.87068z"/>
     <path stroke="null" id="svg_66" d="m29841.420455,19968.693365c-4.5612,-2.09898 -9.3401,-7.09844 -9.3401,-9.77124c0,-0.93533 1.4414,-2.96542 3.2032,-4.51132l3.2031,-2.81074l-9.3085,0.30419c-10.5296,0.34409 -12.0978,-0.5484 -12.0978,-6.88496c0,-4.77603 -1.2733,-6.62447 -6.984,-10.13828c-2.7588,-1.6975 -5.016,-3.35859 -5.016,-3.69131c0,-0.33273 0.7601,-1.89162 1.689,-3.46421c1.5692,-2.65647 2.0125,-2.81716 6.25,-2.26574c5.4142,0.70454 8.061,1.91048 8.061,3.67269c0,0.70726 2.0174,3.39142 4.4832,5.96482c3.3258,3.47102 5.2337,4.6789 7.3906,4.6789c2.5986,0 2.9524,-0.38592 3.3316,-3.63359c0.4534,-3.884 -0.9539,-5.88066 -6.4554,-9.15894c-1.5125,-0.90128 -2.75,-2.2062 -2.75,-2.89982c0,-0.69363 2.2415,-3.03292 4.981,-5.19842c3.7292,-2.94772 5.677,-3.83774 7.75,-3.54124c1.523,0.21782 5.2026,0.62398 8.177,0.90257c2.9745,0.27859 6.4972,1.22013 7.8283,2.09231l2.4202,1.58577l-0.555,18.54525c-0.3293,11.00171 -0.9955,19.07592 -1.6378,19.84987c-0.6279,0.75654 -0.8092,2.76265 -0.4317,4.77514c1.0119,5.3941 -0.7523,7.69809 -5.8172,7.59684c-2.3181,-0.04634 -6.0867,-0.94569 -8.3747,-1.99854z"/>
     <path stroke="null" id="svg_67" d="m29768.697755,19962.327915c-4.1073,-2.52391 -6.8434,-2.56222 -9.5272,-0.13338c-0.8997,0.81425 -2.1653,1.15322 -2.8125,0.75327c-1.5391,-0.9512 3.9127,-23.79218 5.5904,-23.42164c0.7324,0.16177 1.1319,-1.63463 1.1319,-5.09027c0,-6.70243 4.6883,-30.39772 6.6103,-33.40973c2.9568,-4.63352 10.818,-0.78737 8.2393,4.0311c-0.6889,1.28713 -0.7254,2.70929 -0.1052,4.09539c1.0715,2.39465 0.7497,8.78521 -0.5739,11.39604c-0.4816,0.95011 -0.8296,3.52747 -0.7731,5.72747c0.0878,3.42446 0.4475,4.04875 2.4996,4.33881c1.3183,0.18635 4.3882,-0.21872 6.8221,-0.90014c3.9914,-1.11754 4.6126,-1.05138 6.3391,0.67505c3.6955,3.69554 4.5792,17.55305 1.3931,21.84548c-0.8331,1.12244 -2.4364,3.48877 -3.5628,5.25851c-4.6532,7.31099 -13.8419,9.3992 -21.2711,4.83404z"/>
     <path stroke="null" id="svg_68" d="m29796.042555,19962.176685c-0.7099,-1.86716 -0.5236,-3.1715 0.7423,-5.19669c0.9296,-1.48711 1.7275,-2.7925 1.7732,-2.90088c0.0457,-0.10837 1.5097,-0.44838 3.2534,-0.75558c2.9902,-0.52679 3.2881,-0.29238 5.242,4.12469c1.259,2.8463 1.7112,5.04363 1.1528,5.60205c-0.5054,0.50535 -3.2357,1.07642 -6.0674,1.26904c-4.7169,0.32087 -5.228,0.14124 -6.0963,-2.14263z"/>
     <path stroke="null" id="svg_69" d="m29990.583155,19930.785115c-0.3475,-1.09508 -0.4075,-2.35407 -0.1333,-2.79775c0.7602,-1.23008 -0.5583,-2.75928 -3.8491,-4.4641c-2.8465,-1.47464 -3.0833,-1.43181 -5.2986,0.95857c-1.7111,1.84636 -2.8959,2.32274 -4.5204,1.81753c-1.2108,-0.37657 -3.3264,-0.91891 -4.7014,-1.2052c-1.375,-0.2863 -3.4814,-1.68087 -4.6809,-3.09905c-1.8466,-2.18325 -2.4215,-2.37889 -3.75,-1.27628c-0.863,0.71622 -1.5691,2.48887 -1.5691,3.93923c0,3.43694 -3.1835,5.45635 -7.2081,4.57239c-1.672,-0.36722 -8.5827,-0.73706 -15.3571,-0.82186c-10.7898,-0.13506 -12.6656,-0.41348 -15.126,-2.24512c-2.4069,-1.79176 -2.8515,-2.89281 -3.1074,-7.69484c-0.1945,-3.65122 0.2471,-6.65916 1.2675,-8.63233c2.3999,-4.64095 8.2942,-10.06014 10.942,-10.06014c4.2783,0 4.8977,-2.33275 1.4815,-5.58043c-5.5631,-5.28883 -7.2665,-10.94044 -4.7427,-15.73531c1.6653,-3.16389 2.7767,-3.65202 8.3503,-3.66773c6.0781,-0.01713 10.0925,2.92371 11.6396,8.52678c0.5637,2.04168 2.1099,4.79711 3.436,6.12318c1.9803,1.98032 2.7733,2.21714 4.439,1.32567c1.9295,-1.03261 1.8117,-1.30801 -2.4251,-5.667c-2.4492,-2.5199 -4.988,-5.87292 -5.6417,-7.45116c-1.0586,-2.55569 -0.8964,-3.25256 1.4827,-6.37176l2.6713,-3.50224l-6.8284,0c-8.513,0 -11.2734,-1.61522 -11.2734,-6.59654c0,-1.91573 0.9314,-5.30882 2.0698,-7.5402c1.1383,-2.23139 1.8313,-4.29552 1.5398,-4.58695c-1.5757,-1.57579 2.8911,-6.27491 8.889,-9.35124l6.6104,-3.39048l6.6301,3.4827c8.4371,4.4319 7.9196,4.25278 7.9751,2.76049c0.0262,-0.70278 0.3743,-2.06528 0.7737,-3.02778c0.3993,-0.9625 0.3404,-1.79464 -0.1309,-1.84919c-0.4714,-0.05456 -2.1597,-0.21355 -3.7518,-0.35331c-4.1214,-0.36178 -10.9217,-7.96752 -13.1513,-14.70895c-0.9711,-2.9362 -3.2705,-7.31576 -5.1098,-9.73235c-1.8392,-2.41659 -3.3441,-4.74877 -3.3441,-5.18261c0,-0.43385 -0.8624,-1.06253 -1.9164,-1.39706c-2.8395,-0.90123 -3.9478,-5.3438 -3.181,-12.75183c0.8971,-8.66713 1.9271,-9.80788 8.3449,-9.24184c6.6648,0.58781 8.4775,1.91027 15.7954,11.5235c3.3837,4.44503 6.2989,7.93522 6.4781,7.75598c1.1082,-1.10819 -1.5943,-7.20151 -4.8195,-10.86678c-4.9653,-5.64266 -4.7556,-8.65592 0.7985,-11.4779c2.2,-1.11779 5.792,-3.25529 7.9821,-4.75c2.1902,-1.49471 4.7777,-2.71766 5.75,-2.71766c1.1127,0 1.7679,-0.75594 1.7679,-2.0396c0,-1.12178 1.8301,-3.8335 4.067,-6.02605l4.0669,-3.98645l-2.5669,-3.05067c-1.4119,-1.67788 -2.5811,-3.80365 -2.5983,-4.72395c-0.0172,-0.92031 -1.0601,0.35172 -2.3177,2.82672c-6.182,12.16698 -10.9557,16.44927 -18.4857,16.58262c-2.5659,0.04545 -7.2421,0.69859 -10.3914,1.45144c-7.9331,1.89635 -11.1655,0.7227 -11.5784,-4.20395c-0.1675,-1.9984 0.3721,-5.2527 1.199,-7.23178c0.8269,-1.97908 1.2417,-3.59833 0.9218,-3.59833c-1.0696,0 -4.3163,4.28813 -4.3163,5.70076c0,0.76711 -1.1493,2.45987 -2.554,3.7617c-2.0546,1.90414 -3.1052,2.20887 -5.3731,1.55845c-6.6981,-1.92098 -11.5604,-7.52362 -9.1012,-10.48682c1.0763,-1.29683 0.9449,-1.53409 -0.8493,-1.53409c-1.1673,0 -2.4599,-0.06784 -2.8724,-0.15077c-1.6539,-0.33246 -3.1881,-3.53368 -3.2182,-6.71475c-0.0252,-2.67137 0.7932,-4.11967 3.9682,-7.02189c4.2922,-3.92344 4.8737,-5.11259 2.5,-5.11259c-0.825,0 -2.4,-0.9 -3.5,-2c-1.1,-1.1 -3.039,-2 -4.3089,-2c-8.6692,0 -6.307,-9.30472 3.3089,-13.03355c1.925,-0.74648 5.1351,-3.06931 7.1336,-5.16184c3.0871,-3.23241 4.269,-3.80461 7.8584,-3.80461c3.9667,0 4.1878,-0.14745 3.6191,-2.41337c-0.4699,-1.8723 0.0663,-2.97881 2.3916,-4.93544c1.6485,-1.38714 2.9973,-3.39602 2.9973,-4.46419c0,-2.5059 2.0383,-4.17225 4.534,-3.70672c1.0813,0.20168 2.4657,0.40113 3.0765,0.44321c0.6107,0.04208 2.7141,1.16483 4.6742,2.495c3.8224,2.5939 4.7153,2.07249 4.7153,-2.75348c0,-1.19427 1.575,-4.38668 3.5,-7.09423c1.925,-2.70755 3.5,-5.72467 3.5,-6.7047c0,-0.98003 1.7833,-3.65647 3.9628,-5.94766c3.1921,-3.35553 4.4746,-4.06795 6.5941,-3.66279c2.1915,0.41894 2.7948,0.03393 3.6097,-2.30378c1.0654,-3.05599 5.2432,-5.09914 9.0566,-4.42906c7.5718,1.3305 9.9573,1.12343 14.4188,-1.25159c4.9701,-2.64583 12.6881,-3.64383 15.755,-2.03726c1.3542,0.7094 3.5724,0.48643 7.7528,-0.77931c4.2407,-1.28396 6.4758,-1.50221 8.1031,-0.7912c1.2359,0.54 4.7221,0.82371 7.7471,0.63045c7.4346,-0.47496 9.2799,0.12589 10.7618,3.50428c1.369,3.12088 4.0771,4.88523 8.6691,5.64809c3.8614,0.64149 5.5231,2.43989 6.6188,7.16304c1.397,6.02203 1.1232,11.3089 -0.9796,18.91235c-1.4808,5.35484 -2.6935,7.61815 -5.2122,9.72836c-1.8053,1.5125 -3.8152,2.75 -4.4665,2.75c-1.804,0 -6.9198,6.27063 -9.8093,12.02342c-1.4201,2.8275 -2.5821,5.34994 -2.5821,5.60543c0,1.2938 5.0502,-3.47047 5.9723,-5.63411c0.5872,-1.3779 2.4073,-3.4029 4.0448,-4.5c1.6374,-1.09711 2.9784,-2.33224 2.98,-2.74474c0.0044,-1.1335 4.7928,-0.89901 5.5153,0.27008c0.3468,0.56105 0.6305,3.52784 0.6305,6.59287c0,4.23055 -0.5865,6.45901 -2.435,9.25227c-3.7414,5.65365 -6.8665,12.15903 -6.4464,13.4193c0.2081,0.62432 -1.7252,5.8782 -4.2962,11.6753c-2.5709,5.7971 -5.1388,11.66518 -5.7064,13.04018c-1.2624,3.05836 -3.4213,14.06289 -3.8243,19.49362c-0.3911,5.27065 -5.1098,9.79072 -9.732,9.32235c-2.8187,-0.28562 -3.1835,0.00252 -3.7975,2.99936c-0.3736,1.82344 -1.687,4.38803 -2.9187,5.6991c-2.0993,2.23463 -10.3259,5.81277 -11.2468,4.89181c-0.2302,-0.23018 -1.2783,0.53779 -2.3291,1.70659c-1.887,2.09898 -1.8829,2.14356 0.3395,3.6281c2.6823,1.79179 2.9659,5.81049 0.595,8.43033c-1.3296,1.46923 -1.3788,1.85142 -0.25,1.94409c0.7728,0.06344 1.855,0.2199 2.405,0.34769c0.55,0.12778 1.832,0.30087 2.8488,0.38465c1.0168,0.08377 3.1543,1.5499 4.75,3.25807c3.6664,3.92489 4.1585,11.09212 0.9012,13.12631c-2.6173,1.63456 -2.5229,2.56877 0.5,4.94659c1.375,1.08158 2.5,2.82527 2.5,3.87487c0,1.2016 -0.9259,2.14075 -2.5,2.53583c-2.0174,0.50634 -2.5,1.24735 -2.5,3.83894c0,4.49238 -4.4578,9.30803 -9.0171,9.74097l-3.4829,0.33073l0.3412,7.5224c0.3071,6.76939 0.1069,7.77042 -2,10c-6.1528,6.51119 -6.1692,6.54742 -4.2712,9.44415c0.9499,1.44962 3.1227,3.35683 4.8285,4.23824c1.7058,0.88141 3.6068,2.29234 4.2245,3.1354c1.497,2.04337 0.9133,7.16395 -1.4128,12.39514c-4.4386,9.98206 -18.7846,18.83161 -20.7074,12.77362z"/>
     <path stroke="null" id="svg_70" d="m29803.573655,19893.360385c-2.757,-2.75697 -3.247,-7.12369 -1.3955,-12.435c1.3578,-3.89495 3.1598,-4.00062 5.7676,-0.33823c3.9313,5.52105 3.9854,12.12814 0.1161,14.19891c-1.6298,0.87226 -2.4511,0.61136 -4.4882,-1.42568z"/>
     <path stroke="null" id="svg_71" d="m29877.198155,19891.993485c-7.1285,-3.69828 -7.8807,-7.28853 -2.5214,-12.03332c4.3685,-3.86755 9.8857,-4.28523 14.9839,-1.13435c5.5913,3.45556 5.6838,7.86746 0.2607,12.43065c-3.3864,2.84954 -8.1225,3.12389 -12.7232,0.73702z"/>
     <path stroke="null" id="svg_72" d="m29868.425755,19875.325425c-3.3065,-1.43856 -4.8643,-4.33886 -3.9232,-7.30401c0.3471,-1.0936 -0.5788,-3.07167 -2.4573,-5.25c-3.6601,-4.24432 -4.3706,-6.70385 -3.6874,-12.7653c0.6056,-5.37272 3.6678,-8.66876 7.1119,-7.65499c1.1608,0.3417 4.7684,2.37712 8.0169,4.52316c3.2484,2.14603 6.2137,3.90188 6.5895,3.90188c1.6051,0 3.0042,5.58911 3.0042,12.00125l0,6.90714l-4.6438,3.5458c-5.1791,3.95455 -5.5557,4.03335 -10.0108,2.09507z"/>
     <path stroke="null" id="svg_73" d="m29846.784355,19873.452475c-1.2122,-1.27748 -3.779,-4.12299 -5.704,-6.32334c-6.1646,-7.04637 -9.238,-8.72605 -15.5028,-8.47259c-4.9675,0.20097 -5.8568,-0.08611 -8.5217,-2.75108c-3.11,-3.10994 -3.7978,-6.72423 -1.9403,-10.19504c0.5693,-1.06384 1.6943,-1.93426 2.5,-1.93426c0.8056,0 2.3364,-0.87158 3.4016,-1.93683c1.6696,-1.66957 1.7933,-2.46302 0.8963,-5.75c-0.6203,-2.27313 -2.4122,-4.95323 -4.4368,-6.63597c-6.412,-5.32932 -3.649,-13.6772 4.527,-13.6772c4.4561,0 10.0767,3.92112 10.0767,7.02988c0,1.86132 1.4427,3.2534 3.7318,3.60084c2.439,0.37021 7.1442,4.95227 9.3188,9.07506c1.2201,2.31318 2.997,5.04153 3.9486,6.063c3.4358,3.6879 3.8901,5.51523 2.4207,9.73764c-1.9813,5.69341 -1.7906,7.00175 1.5801,10.8408c1.65,1.87924 3,4.12373 3,4.98774c0,2.87619 -2.1911,6.4311 -4.6562,7.55427c-2.0748,0.94534 -2.7623,0.76562 -4.6398,-1.21292z"/>
     <path stroke="null" id="svg_74" d="m29904.170055,19862.629415c-2.2437,-2.33498 -4.3416,-5.07168 -4.6622,-6.08156c-0.3205,-1.00988 -1.7198,-3.05914 -3.1095,-4.55392c-3.5937,-3.86534 -7.318,-11.61619 -7.318,-15.22998c0,-3.95606 3.9028,-7.98779 7.7323,-7.98779c2.5975,0 6.2677,-2.84057 6.2677,-4.85092c0,-0.89203 -4.8552,-3.50857 -6.5,-3.50294c-0.55,0.00188 -3.1317,0.3575 -5.7372,0.79026c-6.0549,1.00572 -9.149,0.20606 -10.4766,-2.70763c-0.7916,-1.73743 -0.7012,-2.99765 0.3605,-5.02397c0.8436,-1.61012 0.9995,-2.7048 0.3852,-2.7048c-0.5675,0 -1.9319,-0.9 -3.0319,-2c-2.2473,-2.24731 -2.6063,-6.96243 -0.9022,-11.85078c0.9827,-2.81903 1.5141,-3.14922 5.0674,-3.14922c3.6589,0 3.9138,-0.17569 3.257,-2.24506c-0.3919,-1.23478 -2.049,-3.41189 -3.6824,-4.83803c-2.5172,-2.19772 -2.8663,-3.06443 -2.2906,-5.68585c0.8078,-3.67748 2.8105,-5.54424 6.4114,-5.97595c6.2368,-0.74775 6.4188,-1.482 1.627,-6.56226l-3.5124,-3.72383l2.0222,-3.9639c1.1122,-2.18015 3.3405,-4.64561 4.9517,-5.4788c2.3277,-1.20372 2.9933,-2.28637 3.2402,-5.27061c0.2901,-3.50679 0.5448,-3.77542 3.8425,-4.05307c3.6502,-0.30732 9.4844,2.75263 11.0536,5.79736c2.2154,4.29849 4.9146,10.77132 4.9146,11.78531c0,2.1432 4.1987,8.68651 8.6125,13.42185c3.2292,3.46447 4.3875,5.52627 4.3875,7.80986c0,2.35167 1.2103,4.38239 5,8.38946c4.3789,4.63002 5,5.81228 5,9.51707c0,4.47771 0.3744,4.96442 9.957,12.94244c3.5728,2.97452 4.043,3.86499 4.043,7.65657c0,3.69223 -0.8329,5.39364 -5.9722,12.20015c-3.2847,4.35026 -7.1097,8.51834 -8.5,9.26241c-1.6572,0.88691 -2.5278,2.20424 -2.5278,3.82491c0,1.35963 -1.6675,4.65859 -3.7055,7.33102c-4.1164,5.39779 -4.748,5.70929 -8.9777,4.42795c-1.9018,-0.57612 -2.224,-0.23648 -2.5,2.63481c-0.3092,3.21676 -0.4413,3.3034 -5.4823,3.59552c-4.9251,0.2854 -5.3552,0.10181 -9.2448,-3.94608z"/>
     <path stroke="null" id="svg_75" d="m29780.387955,19846.776165c0.3057,-1.375 0.8617,-4.1875 1.2354,-6.25c0.3738,-2.0625 1.0921,-3.75 1.5964,-3.75c1.4365,0 -0.133,9.31991 -1.8525,11c-1.3726,1.34114 -1.4763,1.23523 -0.9793,-1z"/>
     <path stroke="null" id="svg_76" d="m29856.056855,19803.494365c-3.4063,-2.72369 -5.7729,-6.78322 -5.2353,-8.98009c0.8446,-3.4514 2.2577,-4.73811 5.2036,-4.73811c2.0567,0 3.3379,0.97442 5.3776,4.08974c3.2041,4.89397 3.3094,6.27843 0.6776,8.91026c-2.2787,2.2787 -3.8392,2.46477 -6.0235,0.7182z"/>
    </g>
    <path stroke="null" d="m30055.551555,20903.831865c1.0601,-2.05 2.443,-2.9535 5.2347,-3.4202c2.0868,-0.3488 4.3725,-1.0084 5.0795,-1.4658c1.8595,-1.2029 2.8196,-8.1778 1.2584,-9.1426c-0.8791,-0.5433 -0.9618,-1.3301 -0.2787,-2.6499c0.5344,-1.0325 1.2738,-3.5518 1.6432,-5.5985c0.3693,-2.0466 1.4915,-4.2966 2.4938,-5c3.604,-2.5291 6.7456,-8.359 6.4112,-11.8977c-0.1757,-1.8595 -0.3904,-7.0334 -0.4771,-11.4974c-0.1477,-7.5986 0.0715,-8.5264 3.4358,-14.5423l3.5935,-6.4258l-1.7915,-3.9577c-0.9854,-2.1768 -2.7551,-4.815 -3.9328,-5.8628c-2.0884,-1.858 -2.9076,-4.595 -1.3752,-4.595c0.4212,0 3.4011,2.6864 6.6218,5.9698c5.3179,5.4213 10.7247,8.9103 16.1122,10.397c5.4772,1.5115 8.4955,-7.6781 4.4478,-13.5417c-2.6433,-3.8291 -13.5355,-15.6472 -16.3463,-17.7358c-1.0441,-0.7759 -4.8691,-1.752 -8.5,-2.1692c-3.6308,-0.4172 -9.0621,-1.4699 -12.0694,-2.3393c-3.8807,-1.1219 -9.7424,-1.5808 -20.1933,-1.5808c-13.7352,0 -14.8224,-0.1385 -16.1684,-2.0602c-0.7937,-1.1331 -3.8181,-3.2875 -6.721,-4.7875c-4.2877,-2.2156 -5.3,-3.2301 -5.3953,-5.4071c-0.0645,-1.4739 -1.412,-4.0312 -2.9945,-5.683c-2.4685,-2.5765 -2.6416,-3.0935 -1.2184,-3.6396c2.2172,-0.8508 2.0913,-3.0064 -0.378,-6.4742c-1.1202,-1.5733 -2.9155,-4.847 -3.9895,-7.2749c-1.7095,-3.8647 -2.4312,-4.491 -5.7938,-5.0287c-3.8429,-0.6145 -14.4695,-5.6951 -17.0493,-8.1512c-0.7531,-0.7171 -1.4866,-3.034 -1.6299,-5.1487c-0.1433,-2.1147 -0.6023,-5.1376 -1.0199,-6.7176l-0.7592,-2.8728l-8.0745,0.5293c-7.4824,0.4905 -8.4986,0.3152 -13.8591,-2.3908l-5.7847,-2.9201l-4.1253,2.6041c-3.7541,2.3699 -3.9836,2.7459 -2.5505,4.1791c1.4331,1.4331 0.9718,1.9679 -5.1263,5.9426c-3.6857,2.4023 -8.3301,6.1089 -10.3209,8.2369c-4.0487,4.3276 -4.5316,4.3791 -18.8803,2.0125c-4.125,-0.6803 -10.6855,-1.326 -14.579,-1.4349c-6.7106,-0.1877 -13.421,-2.5521 -13.421,-4.7288c0,-0.4314 -1.155,-0.7844 -2.5668,-0.7844c-1.5622,0 -4.0082,-1.3664 -6.25,-3.4913c-3.656,-3.4655 -3.7511,-3.4914 -12.8618,-3.5c-6.6095,-0.0063 -9.5782,-0.4083 -10.6063,-1.4364c-0.7852,-0.7853 -3.1799,-1.744 -5.3214,-2.1304c-5.5037,-0.9932 -6.0829,-1.7308 -6.8468,-8.7202c-0.6237,-5.7053 -0.9444,-6.3548 -3.8635,-7.8247c-3.0595,-1.5406 -3.1793,-1.8325 -3.0772,-7.5c0.1152,-6.3917 1.3025,-33.1995 1.8999,-42.897c0.2033,-3.3 0.6573,-13.15136 1.0088,-21.89191c0.8025,-19.95266 -0.9234,-16.8192 22.9172,-41.60809c5.0252,-5.225 12.0462,-12.82618 15.6023,-16.8915c3.5561,-4.06533 6.9315,-7.89033 7.5009,-8.5c0.5694,-0.60968 6.4166,-7.4085 12.9937,-15.1085c6.5771,-7.7 14.2113,-16.49119 16.9647,-19.53598c13.4836,-14.91026 19.515,-21.68198 21.344,-23.96402l2.0037,-2.5l3.3293,1.88762c4.0839,2.31544 10.8293,8.61851 10.8293,10.11916c0,0.60549 1.4797,2.5351 3.2883,4.28803c2.4286,2.35391 4.8469,3.48719 9.25,4.33481c4.1114,0.79147 6.8982,2.02666 8.9792,3.97981c2.8616,2.68591 5.391,3.64803 10.0329,3.81626c1.1277,0.04087 4.5027,2.25581 7.5,4.92208l5.4496,4.84778l18.7381,0.62582c16.3226,0.54515 19.271,0.89769 22.8721,2.73483l4.1339,2.109l-0.6786,8.6674c-0.3733,4.76707 -1.0651,9.05675 -1.5373,9.53263c-0.4792,0.48289 -0.025,2.23605 1.0279,3.96742c1.0376,1.70621 2.1644,5.14186 2.504,7.63478c1.0896,7.99931 1.2594,8.82488 2.2004,10.69486c0.5086,1.01074 0.783,3.90676 0.6098,6.43559c-0.2543,3.71317 0.2571,5.4998 2.6577,9.28521c3.86,6.0866 15.8855,20.61691 17.0628,20.61691c2.2869,0 8.671,8.25485 10.4643,13.53079l1.9289,5.67481l6.183,-0.4658l6.183,-0.4657l0.6337,5.1129c1.0019,8.0834 1.4152,11.7202 2.0019,17.613c0.3011,3.025 0.7424,6.625 0.9805,8c0.2382,1.375 0.7051,5.2 1.0375,8.5c0.3325,3.3 0.7695,7.125 0.9712,8.5c0.482,3.287 1.4236,11.261 2.0664,17.5c0.2833,2.75 0.7115,6.575 0.9514,8.5c1.5011,12.0411 2.4751,20.2365 3.017,25.3855c0.3407,3.2371 1.9706,8.9073 3.6219,12.6004c2.5325,5.6638 3.9117,7.3561 8.8107,10.811c6.4614,4.5566 15.4874,7.7582 24.5578,8.7107c4.1491,0.4357 7.4152,1.5343 10.5875,3.5612c2.5232,1.6122 5.4482,2.9408 6.5,2.9526c1.0669,0.0119 3.1222,1.7319 4.6484,3.8901l2.736,3.8689l8.6349,-0.4756c7.4783,-0.4118 9.4802,-0.9401 14.9447,-3.9438c6.3268,-3.4777 11.3819,-5.0701 11.525,-3.6306c0.1521,1.5301 0.724,4.0655 1.3906,6.166c0.5351,1.686 -0.1334,2.8333 -3.1313,5.3736c-6.2453,5.2921 -11.4309,10.7887 -18.8358,19.9654c-3.85,4.7712 -7.45,8.71 -8,8.753c-1.6859,0.1317 -5.686,3.9016 -5.1169,4.8224c1.1628,1.8815 -6.8527,4.9225 -13.4961,5.1203c-11.9364,0.3553 -29.132,7.4287 -32.7981,13.4915c-3.6336,6.0091 -3.6047,7.4639 0.1797,9.0452c1.879,0.785 4.2908,1.1987 5.3597,0.9191c1.4711,-0.3846 2.3463,0.3366 3.6008,2.9673c1.9451,4.0789 1.2817,4.6458 -5.4358,4.6458c-4.0483,0 -14.9728,4.1237 -17.7933,6.7165c-1.3207,1.2141 -1.2041,1.6033 0.9755,3.2556l2.4754,1.8766l-2.7459,0.6892c-1.5103,0.3791 -4.736,0.1881 -7.1683,-0.4243c-9.4841,-2.3882 -11.7296,-1.3358 -23.537,11.0309c-6.4716,6.7782 -7.9801,7.8674 -11,7.9423c-1.9248,0.0477 -4.9553,0.2371 -6.7345,0.4208l-3.2347,0.3341l1.4407,-2.786z" id="svg_23"/>
    <path stroke="null" d="m30406.750555,20726.113065c-0.2889,-0.2889 -4.2704,-0.6863 -8.8478,-0.8831c-4.5773,-0.1968 -10.7974,-1.085 -13.8224,-1.9738c-6.6994,-1.9685 -8.0737,-2.3009 -10,-2.4188c-4.0759,-0.2495 -4.5024,-1.7185 -2.031,-6.995c1.3051,-2.7864 2.9631,-5.0662 3.6844,-5.0662c0.7213,0 3.3494,1.9526 5.8401,4.3392c3.6422,3.4898 4.7461,4.077 5.64,3c0.6543,-0.7884 3.1445,-1.3392 6.0547,-1.3392c2.7188,0 5.7012,-0.4021 6.6275,-0.8936c3.1978,-1.6966 12.1423,-3.9835 12.6114,-3.2243c0.2588,0.4187 -0.1614,1.9793 -0.9337,3.4679c-0.7723,1.4887 -1.5075,4.7027 -1.6338,7.1423c-0.2048,3.9559 -1.7424,6.2915 -3.1894,4.8446z" id="svg_22"/>
    <g stroke="null" id="svg_21">
     <path fill="#3838ff" stroke="null" id="svg_77" d="m30204.378357,20800.011365c-0.8982,-1.5206 -1.81,-4.3331 -2.0261,-6.25c-0.3712,-3.2927 -0.6206,-3.502 -4.5159,-3.7894c-4.1223,-0.3042 -9.4829,1.7602 -15.4104,5.9348c-2.019,1.422 -4.4415,1.8694 -10.1211,1.8694c-7.4099,0 -7.4848,-0.0266 -9.8456,-3.4932c-1.3084,-1.9212 -3.2291,-3.4962 -4.2683,-3.5c-1.0392,-0.0037 -4.1678,-1.4087 -6.9525,-3.1221c-3.5333,-2.1741 -6.7391,-3.2579 -10.6106,-3.587c-8.4407,-0.7175 -17.8292,-3.8149 -23.5904,-7.7828c-4.247,-2.9251 -5.7396,-4.7917 -8.2306,-10.2939c-1.839,-4.0622 -3.2968,-9.2924 -3.6849,-13.221c-0.3532,-3.575 -0.823,-7.85 -1.0439,-9.5c-0.221,-1.65 -0.8973,-7.275 -1.5031,-12.5c-0.6057,-5.225 -1.2908,-11.075 -1.5224,-13c-0.2316,-1.925 -0.6649,-5.525 -0.9629,-8c-0.298,-2.475 -1.887,-16.2 -3.5312,-30.5c-1.6442,-14.3 -3.2343,-27.17677 -3.5336,-28.61504c-0.4776,-2.29537 -0.1614,-2.69159 2.5871,-3.24127c2.8947,-0.57896 3.0802,-0.85797 2.457,-3.69558c-0.5274,-2.40109 -0.0733,-3.97721 2.0853,-7.23914c1.5177,-2.29338 2.7556,-5.30361 2.7509,-6.68938c-0.0046,-1.38577 -1.8351,-6.34459 -4.0677,-11.01959c-2.2327,-4.675 -4.5427,-10.3 -5.1334,-12.5c-0.5908,-2.2 -1.8421,-5.09285 -2.7807,-6.42855c-1.158,-1.648 -1.6241,-3.98173 -1.45,-7.26105c0.2778,-5.23422 -2.3698,-10.92485 -5.9824,-12.85823c-1.1489,-0.61491 -1.9195,-2.1048 -1.9328,-3.73735c-0.0123,-1.49315 -0.9023,-3.83982 -1.9778,-5.21482c-1.0755,-1.375 -1.9655,-2.95146 -1.9778,-3.50325c-0.033,-1.49063 4.8534,-5.82217 10.4979,-9.30577c2.739,-1.69038 6.4077,-4.78737 8.1527,-6.8822c1.7451,-2.09483 5.18,-6.00679 7.6333,-8.69324c2.9871,-3.27109 5.6713,-7.84515 8.1264,-13.84793c3.3243,-8.12818 3.6486,-9.75129 3.4796,-17.41769c-0.1367,-6.20164 -0.9209,-10.6385 -2.9433,-16.65207c-1.5164,-4.50882 -3.0278,-9.39377 -3.3588,-10.85545c-1.047,-4.62429 -9.9778,-14.22677 -16.4298,-17.66567c-7.7185,-4.11393 -13.6692,-10.05314 -13.9652,-13.93839c-0.1244,-1.6321 0.5309,-4.71591 1.4562,-6.8529c0.9253,-2.13699 1.8045,-4.55985 1.9536,-5.38414c0.1492,-0.82428 1.1946,-2.24641 2.3232,-3.16029c1.5509,-1.25581 2.052,-2.82777 2.052,-6.43685c0,-3.36746 0.5782,-5.3907 1.9612,-6.86285c1.8178,-1.935 1.857,-2.39001 0.5358,-6.22477c-0.7839,-2.27545 -1.6268,-5.24821 -1.8731,-6.60613c-0.5536,-3.05285 -3.1856,-8.24113 -6.1944,-12.21041c-2.0536,-2.70927 -2.2751,-4.09967 -2.2849,-14.34736c-0.0078,-8.18534 -0.3963,-11.80787 -1.3943,-13c-0.7609,-0.90895 -2.6616,-4.73723 -4.2238,-8.50729l-2.8405,-6.85464l2.5739,-5.24804c2.4527,-5.00097 2.7962,-5.27851 7.2966,-5.89535c7.5109,-1.02949 13.8748,-0.75925 18.2196,0.77368c5.719,2.01777 13.6987,2.72918 16.9114,1.5077c1.5083,-0.57342 4.5344,-2.81696 6.7247,-4.98564c2.1904,-2.16868 4.4562,-3.93285 5.0351,-3.92037c1.7561,0.03786 21.0774,10.2106 27.4972,14.47731c4.8884,3.24898 5.9839,4.46939 5.8347,6.5c-0.101,1.375 0.5753,3.64781 1.503,5.0507c1.5138,2.28931 2.7386,2.67811 11.9522,3.79402c5.6461,0.68383 12.4485,1.94977 15.1166,2.81321l4.851,1.56989l-0.6828,5.46519c-0.6662,5.33151 0.0768,8.78143 4.6962,21.80699c0.5851,1.65 1.0193,4.23533 0.9649,5.74518c-0.0613,1.69876 0.8631,3.70735 2.4251,5.26932c1.3883,1.38828 3.4161,4.54046 4.5062,7.00485l1.982,4.48071l4.9266,-0.60005c4.7442,-0.57783 5.1227,-0.43257 10.2203,3.92246c2.9115,2.48738 6.5235,4.83117 8.0266,5.20843c1.5031,0.37725 2.7329,1.08713 2.7329,1.57751c0,1.86187 2.1155,0.74621 6.3682,-3.35841c3.2813,-3.16704 4.5766,-5.29971 5.0834,-8.36949c0.4789,-2.90099 1.3437,-4.42183 2.9235,-5.14165c1.3849,-0.63098 2.7683,-2.69008 3.6151,-5.38051c1.5539,-4.93738 1.3867,-15.32639 -0.2953,-18.3472c-0.6159,-1.10613 -0.9899,-2.45155 -0.8311,-2.98982c0.1587,-0.53827 0.7442,-3.44277 1.3009,-6.45445c0.9157,-4.95364 3.2825,-8.52659 4.9609,-7.48925c0.3562,0.22015 0.9572,2.09275 1.3355,4.16132c0.8508,4.65173 5.1605,12.26105 6.9444,12.26105c1.2169,0 4.0644,9.99949 3.5595,12.5c-0.5506,2.72741 0.2674,3.11081 5.785,2.71156l5.75,-0.41606l-0.1525,6.35225c-0.0839,3.49374 -0.6315,7.87223 -1.2169,9.72998c-0.6887,2.18573 -0.7275,4.00691 -0.1101,5.16062c1.1604,2.1681 6.4928,5.5595 10.1937,6.48311c3.3582,0.83811 3.6429,1.72635 4.3132,13.45837c0.2968,5.19346 1.1627,11.71009 1.9243,14.48141c0.7616,2.77132 1.6518,6.64551 1.9782,8.60931c0.4007,2.411 1.5935,4.30994 3.6728,5.84727c2.9969,2.21571 7.8679,10.9709 7.8875,14.17719c0.0054,0.87726 0.8475,2.3531 1.8713,3.27964c1.0238,0.92655 2.6433,3.41835 3.5988,5.53736c1.6807,3.72718 1.6691,4.00705 -0.3576,8.58871l-2.0949,4.73598l-5.2539,-0.54521c-2.8897,-0.29986 -6.6315,-0.84239 -8.3152,-1.20561c-2.7148,-0.58565 -3.3373,-0.25514 -5.5,2.92003c-2.6747,3.92693 -4.3739,4.41519 -7.0228,2.01796c-0.9579,-0.86687 -4.4878,-2.14205 -7.8443,-2.83374c-6.6722,-1.37497 -7.317,-1.09349 -8.4613,3.69388c-0.3775,1.57917 -1.7355,3.27152 -3.1379,3.91051c-1.9134,0.8718 -2.4724,1.88366 -2.4724,4.4751c0,2.38106 -0.8957,4.28499 -3.1001,6.58948c-2.7154,2.83868 -3.0315,3.74286 -2.5473,7.28544c0.3041,2.22449 1.1679,5.23003 1.9196,6.67897c2.2865,4.40737 8.2356,10.37432 12.3423,12.3794c4.3353,2.1167 5.0538,4.51383 3.071,10.24535c-1.0794,3.1202 -0.961,3.51798 1.7382,5.83977c2.9207,2.51231 6.3841,2.75254 12.1868,0.84533c1.9155,-0.62958 2.174,-0.21571 2.7967,4.4786c0.4734,3.56893 1.4659,5.952 3.2015,7.68763c2.295,2.295 2.9988,2.45495 8.0339,1.82586c4.5362,-0.56676 5.8689,-0.37256 7.486,1.09093c1.082,0.97923 2.7333,1.92054 3.6694,2.09178c4.6514,0.85087 14.8779,1.11019 16.017,0.40615c0.7106,-0.43915 1.4894,-2.78202 1.7307,-5.20638c0.5619,-5.64464 1.2911,-12.32964 1.383,-12.67825c0.0392,-0.14868 1.9311,0.67849 4.2043,1.83816c3.0466,1.55425 5.2151,1.9632 8.25,1.55578c4.339,-0.5825 20.3587,-6.02961 37.117,-12.6208c25.7111,-10.1124 41.5349,-15.92463 47.4274,-17.42057c3.535,-0.89746 7.0416,-2.14153 7.7923,-2.76461c0.8038,-0.66708 1.6856,-0.7597 2.1447,-0.22526c2.3391,2.72282 7.1356,9.27215 7.1356,9.74308c0,0.3012 -2.8125,2.69349 -6.25,5.31619c-9.1699,6.99633 -14.6346,13.21074 -15.2554,17.34835c-0.2888,1.925 -2.544,7.55 -5.0116,12.5c-2.4676,4.95 -4.8928,10.125 -5.3894,11.5c-1.1226,3.10832 -17.2956,11.79716 -27.5936,14.82445c-3.85,1.13179 -12.4,3.62146 -19,5.53262c-38.673,11.19852 -57.3573,18.23185 -60.8456,22.90405c-1.0277,1.3764 -2.2728,4.69323 -2.7671,7.37072c-0.4942,2.67749 -1.8335,7.90566 -2.9762,11.61816c-1.8045,5.8627 -2.3907,6.75 -4.4595,6.75c-4.7551,0 -14.5568,11.1554 -18.0124,20.5c-1.0169,2.75 -3.2816,7.2624 -5.0325,10.0276c-1.751,2.7651 -3.3952,6.5901 -3.6538,8.5c-1.1346,8.3778 -16.4763,33.2164 -24.4601,39.6014c-11.2123,8.967 -26.6344,25.3746 -25.1914,26.8013c0.2193,0.2167 4.2236,-3.837 8.8986,-9.0081c4.675,-5.1712 11.459,-11.6288 15.0756,-14.3503c6.2138,-4.6758 13.016,-11.8649 17.5726,-18.5719c4.0672,-5.9867 11.3518,-20.4278 11.3518,-22.5039c0,-1.1702 0.5149,-3.1105 1.1442,-4.3118c1.8194,-3.473 11.0248,-14.8209 14.8558,-18.3133c1.925,-1.7549 5.7383,-5.2545 8.4739,-7.777c2.7357,-2.5224 7.6857,-6.2366 11,-8.2537c3.3144,-2.0172 9.4011,-6.0003 13.5261,-8.8516c5.225,-3.6115 9.4829,-5.6723 14.037,-6.794c6.137,-1.5115 6.8958,-1.499 12.4001,0.204c4.8026,1.4859 6.1853,2.4278 7.6452,5.2077c3.972,7.5635 3.3478,12.7085 -2.386,19.6675c-5.5646,6.7537 -7.618,8.0756 -13.4795,8.6778c-11.4738,1.1789 -21.0237,3.8617 -24.1514,6.7848c-4.0561,3.7908 -7.3928,4.9331 -15.304,5.2391c-9.4631,0.366 -10.0237,1.0369 -9.2371,11.0548l0.6429,8.1873l-3.8549,0.6164c-2.1202,0.339 -5.0547,0.3988 -6.5211,0.1329c-1.9752,-0.3582 -3.0799,0.1018 -4.2623,1.7748c-1.9578,2.77 -6.219,16.6317 -6.996,22.7582c-0.3139,2.475 -1.0062,7.425 -1.5384,11c-0.5322,3.575 -1.1632,8.4393 -1.4021,10.8097c-0.7777,7.7148 -3.7567,14.3158 -7.7269,17.1217c-1.999,1.4127 -4.6495,4.0383 -5.8899,5.8347c-1.2405,1.7963 -3.205,3.4571 -4.3655,3.6907c-1.1606,0.2336 -9.3938,2.0263 -18.2961,3.9839c-8.9023,1.9576 -18.5928,3.5593 -21.5344,3.5593c-4.7811,0 -5.5216,-0.2933 -6.9816,-2.7648z"/>
     <path stroke="null" id="svg_78" d="m30368.093455,20646.981055c-1.3678,-0.22334 -3.6178,-1.18346 -5,-2.13359c-1.3822,-0.95013 -5.079,-2.2823 -8.2151,-2.96037c-7.1475,-1.54542 -8.536,-4.11866 -4.1556,-7.70162c2.279,-1.86409 4.1738,-2.36909 9.3576,-2.49394c13.6657,-0.32916 18.5858,0.26369 27.75,3.34379c9.1304,3.06873 9.25,3.15095 9.25,6.3575c0,3.81706 -0.3704,3.9752 -11.5,4.90993c-12.1166,1.01763 -14.7769,1.12082 -17.4869,0.6783z"/>
    </g>
    <path stroke="null" d="m29725.997055,20713.389365c-0.2292,-0.2128 -4.0167,-0.691 -8.4167,-1.0627c-4.4,-0.3717 -9.125,-0.8417 -10.5,-1.0445c-1.375,-0.2028 -5.425,-0.6555 -9,-1.006c-3.575,-0.3505 -7.625,-0.7959 -9,-0.9897c-1.375,-0.1939 -5.425,-0.6505 -9,-1.0148c-3.575,-0.3643 -17.525,-3.1382 -31,-6.1642c-13.475,-3.026 -25.175,-5.6462 -26,-5.8227c-4.5446,-0.9723 -7.1169,-1.5529 -13,-2.9342c-3.575,-0.8394 -7.4,-1.6829 -8.5,-1.8744c-1.1,-0.1915 -5.5024,-1.1509 -9.7832,-2.1319c-6.3238,-1.4492 -7.6873,-2.0916 -7.2721,-3.4259c0.477,-1.5329 8.3409,-33.84056 9.0407,-37.1422c0.1749,-0.825 1.7306,-7.35 3.4572,-14.5c1.7265,-7.15 4.7469,-19.75 6.7118,-28c1.965,-8.25 5.8124,-24.225 8.5499,-35.5c2.7375,-11.275 5.1564,-21.39568 5.3754,-22.4904c0.2189,-1.09472 1.7548,-7.61972 3.4131,-14.5c1.6583,-6.88028 5.0595,-21.0596 7.5582,-31.5096c2.4987,-10.45 6.0621,-25.3 7.9186,-33c1.8565,-7.7 5.019,-20.82724 7.0278,-29.17164l3.6524,-15.17164l5.1751,0.42821c2.8463,0.23552 7.3837,0.76276 10.0831,1.17164c2.6994,0.40889 8.4026,0.32908 12.6738,-0.17735c7.3287,-0.86898 8.1077,-0.76729 13.8447,1.80731c5.6663,2.54288 8.0735,2.72821 8.0735,0.6216c0,-1.12423 -21.2468,-11.47108 -26.5,-12.90507c-2.2,-0.60055 -5.0125,-1.09442 -6.25,-1.09748c-1.2375,-0.00307 -3.15,-0.90558 -4.25,-2.00558c-2.2049,-2.20492 -5.1012,-2.55137 -8.0657,-0.96482c-2.2816,1.22107 -2.3272,0.89536 -0.8432,-6.02443c0.8561,-3.992 1.4484,-4.98656 2.75,-4.61809c1.4822,0.41957 8.5483,1.87308 15.2308,3.13298c1.3355,0.25178 3.3281,0.64622 4.4281,0.87652c3.3367,0.69861 44.8204,8.77468 47.5,9.24735c1.375,0.24253 7.9,1.51473 14.5,2.8271c6.6,1.31237 13.8,2.55824 16,2.76859c3.8523,0.36833 3.9944,0.50936 3.8475,3.81863c-0.0839,1.88989 -1.3091,11.76117 -2.7228,21.93617c-1.4137,10.175 -2.8546,20.75 -3.2019,23.5c-0.6196,4.90466 -1.8348,7.5 -3.5119,7.5c-1.5333,0 -7.5203,6.64289 -8.8243,9.79099c-0.948,2.28858 -1.0096,3.95066 -0.2374,6.4002c2.2242,7.05465 1.8338,10.50892 -1.5864,14.03765c-2.2184,2.2888 -2.9187,3.70987 -2.3121,4.69145c0.7073,1.14436 1.4634,0.90908 4.0365,-1.25609c1.7414,-1.46531 3.8323,-2.6642 4.6464,-2.6642c1.5014,0 1.4826,3.15089 -0.1367,23c-0.2468,3.025 -0.7058,9.55 -1.02,14.5c-0.3142,4.95 -0.7597,11.025 -0.9899,13.5c-0.2303,2.475 -0.686,9 -1.0128,14.5c-0.3268,5.5 -0.7705,11.575 -0.9861,13.5c-0.2157,1.925 -0.6749,8.45 -1.0206,14.5c-0.3458,6.05 -0.7861,12.125 -0.9785,13.5c-0.1925,1.375 -0.6594,7.9 -1.0375,14.5c-0.3782,6.6 -0.8086,12.675 -0.9565,13.5c-0.1479,0.825 -0.5956,7.125 -0.995,14c-0.3994,6.875 -0.8494,13.175 -1,14c-0.1506,0.825 -0.6006,7.125 -1,14c-0.3994,6.875 -0.8769,13.3004 -1.0612,14.2786c-0.1842,0.9783 -0.4293,4.6908 -0.5445,8.25c-0.1871,5.7784 -1.1619,7.7703 -2.9776,6.0846z" id="svg_20"/>
    <path stroke="null" d="m29466.520055,20335.451455c-1.0668,-0.70329 -5.3147,-2.79428 -9.4397,-4.64665c-6.2983,-2.82831 -28.0222,-14.10455 -63.6742,-33.05141c-11.3331,-6.02281 -52.8515,-31.826 -83.5758,-51.94126c-10.88063,-7.12358 -15.75,-10.87982 -15.75,-12.1496c0,-2.53109 3.08744,-7.38071 6.31523,-9.91969c5.80007,-4.56236 2.45128,-7.5066 -8.9486,-7.86749c-2.25866,-0.0715 -3.28147,-0.66552 -3.66389,-2.12789c-0.29178,-1.11579 -0.90676,-1.92664 -1.36663,-1.80188c-1.87096,0.50758 -5.27417,-1.39891 -5.87471,-3.29102c-0.47788,-1.50567 1.89077,-5.75319 9.31217,-16.69885c13.76387,-20.30003 39.20883,-57.98265 58.86743,-87.17955c15.6575,-23.25445 35.8902,-53.23674 63.2135,-93.67448l12.2803,-18.17448l3.1826,1.09681c6.5599,2.26073 8.4583,4.51184 9.2009,10.9102c0.377,3.24799 1.7359,7.98034 3.0198,10.51632c1.2839,2.53599 2.6273,6.3453 2.9855,8.46512c0.4784,2.83154 1.7333,4.78056 4.7297,7.34531c3.7206,3.18469 3.9473,3.64572 2.5833,5.25314c-2.0997,2.47449 -12.2174,18.95338 -14.5893,23.76206c-1.0852,2.2 -2.772,6.475 -3.7485,9.5c-0.9764,3.025 -2.7799,7.525 -4.0076,10c-4.3609,8.79134 -4.6091,8.12209 5.9592,16.06576c7.2784,5.47081 9.5496,7.73189 9.5496,9.50716c0,1.28108 -1.6097,5.41081 -3.5771,9.17718c-2.3351,4.47042 -3.7584,8.7597 -4.0995,12.35433c-0.5119,5.39554 -0.4491,5.56231 3.1208,8.28522c3.8981,2.97322 3.741,2.14722 2.6204,13.78089c-0.0355,0.3688 -1.3815,0.95979 -2.9911,1.31331c-3.1647,0.69509 -6.0735,4.25061 -6.0735,7.42381c0,1.08791 -0.9106,3.52145 -2.0237,5.40786c-2.1822,3.69862 -1.6993,7.00966 1.3973,9.57956c1.1404,0.94646 1.4429,2.41902 1.0839,5.27615c-0.382,3.04067 0.0208,4.6918 1.7305,7.09286c1.596,2.24127 2.2692,4.70941 2.3718,8.69542c0.0792,3.07425 0.9269,7.08104 1.8937,8.95058c1.6835,3.25561 1.6724,3.65569 -0.2921,10.48732c-2.6118,9.08248 -3.882,16.17339 -4.6138,25.75617c-0.3214,4.20947 -1.0809,9.07772 -1.6876,10.81832c-0.9809,2.8137 -0.826,3.46219 1.3962,5.84642c3.3383,3.58173 4.2702,5.55518 6.2355,13.20505c0.9151,3.56215 2.9214,8.81302 4.4584,11.66861c2.0409,3.79153 2.4518,5.32355 1.5235,5.67976c-0.6991,0.26828 -1.4987,2.65689 -1.7768,5.30802c-0.2782,2.65113 -0.8303,6.07926 -1.227,7.61807c-0.8598,3.33545 0.418,4.57628 8.5302,8.28347c3.025,1.38238 7.2306,3.70816 9.3457,5.16839c2.1151,1.46023 5.0401,2.67641 6.5,2.70264l2.6543,0.04767l-0.279,10.44563c-0.1534,5.74509 -0.4055,10.57224 -0.5603,10.727c-0.1547,0.15475 -1.1542,-0.29405 -2.221,-0.99734z" id="svg_19"/>
   </g>
  </g>
 </g>
</svg>