<?xml version="1.0" encoding="UTF-8"?>
<!-- Generator: Adobe Illustrator 20.0.0, SVG Export Plug-In . SVG Version: 6.00 Build 0)  -->
<svg xmlns="http://www.w3.org/2000/svg" xmlns:xlink="http://www.w3.org/1999/xlink" xmlns:dc="http://purl.org/dc/elements/1.1/" xmlns:cc="http://creativecommons.org/ns#" xmlns:rdf="http://www.w3.org/1999/02/22-rdf-syntax-ns#" version="1.1" id="DESIGNS" x="0px" y="0px" width="32px" height="32px" viewBox="0 0 32 32" style="enable-background:new 0 0 32 32;" xml:space="preserve">
<title property="dc:title">to sleep</title><desc property="dc:description">An icon for "sleep" from the Open series on to [icon]. Downloaded from http://www.toicon.com/icons/open_sleep by 127.0.0.1 on 2017-07-10. Licensed CC-BY, see http://toicon.com/license/ for details.</desc>
<g>
	<g>
		<path class="open_een" d="M12.352,30c-2.294,0-4.57-0.569-6.582-1.645c-0.533-0.285-0.825-0.835-0.762-1.436    c0.066-0.627,0.504-1.146,1.114-1.322c4.257-1.224,7.229-5.17,7.229-9.598c0-3.544-1.819-6.749-4.866-8.572    C8.249,7.286,8.172,6.979,8.314,6.742S8.764,6.429,9,6.57c3.352,2.005,5.353,5.531,5.353,9.43c0,4.871-3.271,9.213-7.953,10.559    c-0.264,0.076-0.377,0.291-0.396,0.466c-0.013,0.114,0.003,0.323,0.237,0.449C8.109,28.472,10.222,29,12.352,29    c3.689,0,7.219-1.577,9.684-4.326c2.498-2.788,3.647-6.391,3.235-10.146C24.633,8.697,19.955,3.9,14.149,3.121    c-2.761-0.37-5.497,0.116-7.909,1.406C6.013,4.649,5.993,4.852,6.001,4.962C6.015,5.133,6.128,5.363,6.4,5.441    c0.266,0.077,0.418,0.354,0.342,0.619C6.665,6.325,6.39,6.477,6.123,6.402C5.496,6.221,5.056,5.687,5.005,5.041    C4.959,4.456,5.252,3.921,5.769,3.646c2.599-1.39,5.546-1.913,8.513-1.516c6.255,0.839,11.295,6.007,11.983,12.289    c0.443,4.042-0.795,7.92-3.485,10.922C20.127,28.302,16.326,30,12.352,30z" style="fill: #cc00ff;"/>
	</g>
	<g>
		<path class="open_een" d="M12.352,30c-2.294,0-4.57-0.569-6.582-1.645c-0.533-0.285-0.825-0.835-0.762-1.436    c0.066-0.627,0.504-1.146,1.114-1.322c4.257-1.224,7.229-5.17,7.229-9.598c0-3.544-1.819-6.749-4.866-8.572    C8.249,7.286,8.172,6.979,8.314,6.742S8.764,6.429,9,6.57c3.352,2.005,5.353,5.531,5.353,9.43c0,4.871-3.271,9.213-7.953,10.559    c-0.264,0.076-0.377,0.291-0.396,0.466c-0.013,0.114,0.003,0.323,0.237,0.449C8.109,28.472,10.222,29,12.352,29    c3.689,0,7.219-1.577,9.684-4.326c2.498-2.788,3.647-6.391,3.235-10.146C24.633,8.697,19.955,3.9,14.149,3.121    c-2.761-0.37-5.497,0.116-7.909,1.406C6.013,4.649,5.993,4.852,6.001,4.962C6.015,5.133,6.128,5.363,6.4,5.441    c0.266,0.077,0.418,0.354,0.342,0.619C6.665,6.325,6.39,6.477,6.123,6.402C5.496,6.221,5.056,5.687,5.005,5.041    C4.959,4.456,5.252,3.921,5.769,3.646c2.599-1.39,5.546-1.913,8.513-1.516c6.255,0.839,11.295,6.007,11.983,12.289    c0.443,4.042-0.795,7.92-3.485,10.922C20.127,28.302,16.326,30,12.352,30z" style="fill: #cc00ff;"/>
	</g>
</g>
<metadata><work rdf:about=""><format>image/svg+xml</format><type rdf:resource="http://purl.org/dc/dcmitype/StillImage"/><license rdf:resource="http://creativecommons.org/licenses/by/4.0/"/><attributionname>Ariane Garoff</attributionname><attributionurl>http://www.toicon.com/icons/open_sleep</attributionurl></work></metadata></svg>
